<svg xmlns="http://www.w3.org/2000/svg" viewBox="0 0 743 316.49"><path d="M.08 163.75c0-29.9.05-59.81-.08-89.71-.02-3.51 1.21-4.25 4.43-4.22 13.92.15 27.85.17 41.77-.02 3.47-.05 4.25 1.11 4.24 4.39-.11 40.8-.08 81.6-.08 122.4 0 5.11 0 5.08 4.96 5.08 27.24-.01 54.49.49 81.72-.15 26.84-.63 47.01-12.99 59.52-37.16 4.41-8.52 7.2-17.33 8.01-27.02.37-4.4 1.16-8.82.78-13.21-2.16-25.07-12.94-45.28-34.53-58.89-5.84-3.68-12.48-5.8-19.32-7.43-7.32-1.74-14.62-1.16-21.92-1.22-20.7-.17-41.4-.11-62.1 0-3.19.02-4.16-1-4.13-4.19.14-16.22.15-32.45-.03-48.67-.03-3.15.97-3.72 3.89-3.7C93 .17 118.79-.1 144.57.25c17.96.24 34.36 6.14 49.76 15.23 22.64 13.37 38.3 32.74 49.13 56.32 3.97 8.65 6.65 17.76 8.63 27.09 1.34 6.34 1.95 12.74 2.77 19.14.62 4.79 1.25 9.59.75 14.28-1.09 10.06-1.95 20.12-4.46 30.06-3.61 14.31-9.17 27.6-17.08 39.98-10.07 15.78-22.87 28.75-38.92 38.57-8.2 5.02-16.8 9-25.95 11.76-4.3 1.3-8.72 2.44-13.16 2.97-27.45 3.26-55.01.96-82.52 1.42-23.36.39-46.73.03-70.1.14-2.71.01-3.42-.63-3.41-3.38.11-30.02.07-60.05.07-90.07Zm449.57-75.91c6.9 0 13.8.07 20.7-.04 2.52-.04 3.37.8 3.96 3.41 1.54 6.79 3.72 13.43 5.6 20.14 2.01 7.13 3.93 14.28 5.97 21.41 2.65 9.28 5.39 18.54 8.07 27.81 2.47 8.58 4.91 17.18 7.37 25.76 1.06 3.71 2.11 7.42 3.2 11.12.35 1.2.98 2.43 2.41 2.25 1.28-.16 1.9-1.29 2.27-2.54 3.14-10.68 6.36-21.35 9.48-32.04 3.82-13.07 7.33-26.24 11.41-39.23 3.66-11.64 7.12-23.32 10.43-35.05.57-2.01 1.56-3.09 4.05-3.06 12.71.15 25.42.09 38.13.04 2.2 0 2.92.03 1.96 2.77-5.09 14.46-9.8 29.05-14.71 43.57-4.2 12.45-8.59 24.83-12.72 37.31-3.84 11.61-7.8 23.17-11.58 34.79-5.31 16.29-10.99 32.46-16.36 48.72-4.59 13.9-9.11 27.83-13.85 41.67-1.82 5.3-3.69 10.58-5.31 15.95-.81 2.67-2.34 3.94-5.55 3.87-12.1-.25-24.21-.2-36.31-.03-3.49.05-3.38-1.16-2.52-3.87 3.81-11.89 7.44-23.84 11.11-35.78 1.86-6.03 3.46-12.16 5.63-18.08.93-2.53.64-4.4-.22-6.81-3.76-10.57-7.09-21.3-10.79-31.89-5.35-15.32-10.97-30.54-16.31-45.86-4.5-12.92-8.67-25.96-13.11-38.89-5.01-14.57-10.15-29.1-15.29-43.63-.91-2.58-1.18-4.03 2.56-3.85 6.76.32 13.55.09 20.33.09v-.03Zm-87.45 93.07h-53.76c-5.13 0-5.43.43-3.75 5.39 4.42 13.04 12.59 22.72 25.7 27.49 12.11 4.41 23.61 2.68 34.08-4.88 3.7-2.67 7.42-5.41 9.76-9.54.77-1.35 1.98-1.71 3.63-1.8 8.59-.47 17.16.46 25.74.07 3.62-.16 7.14-1.22 10.89-.09 1.86.56 2.11 1.06 1.62 2.59-3.32 10.33-8.24 19.85-15.1 28.23-8.04 9.8-17.72 17.66-29.52 22.59-5.7 2.38-11.57 4.32-17.8 4.86-3.32.29-6.5 1.32-9.93 1.19-16.15-.6-30.73-5.2-43.9-14.93-13.89-10.26-23.12-23.67-29.05-39.55-5.3-14.2-6.28-29.09-4.25-43.86 2.36-17.21 9.34-32.87 21.13-45.82 9.66-10.61 21.38-18.24 35.35-22.64 6.28-1.97 12.66-2.64 18.91-3.13 6.38-.5 13.12.52 19.43 2.38 13.58 4 25.42 10.96 35.27 21.3 9.06 9.52 15.14 20.67 19.37 33.01 3.86 11.25 4.44 22.81 4.03 34.54-.08 2.35-.89 2.69-3.02 2.68-18.28-.09-36.56-.05-54.84-.05v-.02Zm-19.36-18.03c11.85 0 23.71-.05 35.56.04 2.29.02 3.18-.43 3.05-3.01-.35-7.01-4.35-12.27-8.32-17.36-5.33-6.83-12.24-11.49-20.85-13.75-6.12-1.61-12.47-1.94-18.13-.43-8.58 2.3-16.17 6.94-21.9 14.46-3.82 5.01-6.4 10.44-8.52 16.16-.86 2.3-.08 4.01 3.19 3.96 11.97-.18 23.95-.07 35.93-.08Zm345.55 18.02h-49.02c-3.18 0-6.37.15-9.54-.04-2.89-.17-3.73 1.13-3.18 3.69 1.11 5.09 3.44 9.63 6.36 13.91 4.83 7.07 11.21 12.43 19.22 15.23 12.25 4.28 24.04 3.03 34.73-4.85 3.5-2.58 6.81-5.37 9.35-8.99 2.04-2.91 5.12-3.38 8.34-2.97 10.06 1.27 20.11 1.29 30.16-.05 1.31-.17 2.64-.27 3.75.78 1.22 1.15-.07 1.94-.35 2.87-4.44 14.52-12.36 26.96-23.53 37.08-7.86 7.12-16.81 12.76-27.26 15.63-8.2 2.26-16.43 4.5-25.02 3.66-14.5-1.42-27.96-5.63-39.9-14.49-13.4-9.93-22.83-22.79-28.71-38.13-4.29-11.19-6.15-23.01-5.7-35.09.79-21.15 7.73-40.01 21.67-55.98 9.33-10.68 20.97-18.22 34.5-22.66 4.98-1.63 10.22-1.99 15.33-2.93 6-1.1 11.78-.1 17.46.57 8.88 1.03 17.18 4.56 24.96 9.14 12.8 7.53 22.58 17.98 29.64 30.92 4.18 7.67 7.29 15.76 9 24.47 1.53 7.83 2.3 15.63 2.34 23.58.01 3.42-.92 4.73-4.5 4.7-16.7-.14-33.4-.06-50.11-.06Zm-23.54-18.08c11.86 0 23.73.02 35.59-.01 3.61-.01 4.36-1.32 3.26-4.74-2.01-6.27-5.05-11.83-9.4-16.89-6.25-7.27-14.17-11.68-23.27-13.16-12.93-2.1-24.26 2.15-33.48 11.51-5.3 5.39-9.19 11.68-10.89 19.15-.7 3.05.27 4.28 3.69 4.22 11.5-.2 23-.08 34.5-.08" style="fill:#032d8f"/><path d="M.12 28.43c0-8.47.08-16.95-.06-25.42C.01.58.73-.02 3.12 0c14.65.12 29.29.12 43.94.02 2.42-.02 3.36.46 3.34 3.16-.13 16.7-.14 33.41.01 50.11.03 2.92-1.01 3.31-3.56 3.29-14.65-.11-29.29-.1-43.94.03-2.26.02-2.88-.5-2.85-2.77.13-8.47.05-16.95.05-25.42Z" style="fill:#cf0403"/></svg>