<svg xmlns="http://www.w3.org/2000/svg" id="Layer_2" data-name="Layer 2" viewBox="0 0 46.55 49.37"><defs><style>.cls-1{fill:#04418d}</style></defs><g id="Layer_1-2" data-name="Layer 1"><path d="M44.2 35.06c.26-.15.64-.03.92.07.28.41 1.48.45 1.42.96-.21 2.09-5.3 7.15-7.09 8.45C27.87 53.02 11.79 50 3.91 38.11-2.96 27.72-.51 13.08 9.16 5.4c11.87-9.45 30-6.17 37.15 7.29-.01.53-1.78 1.4-2.15 1.2C38.66 4.65 27.9.15 17.51 3.71-.36 9.84-2.8 34.22 13.59 43.72c10.22 5.92 22.47 2.85 29.33-6.48.29-.39 1.17-2.12 1.28-2.18" class="cls-1"/><path d="M23.01 24.5c.18.06.37.39.37.6l-.23 17.45c-5.92-.08-11.67-4.1-14.44-9.25C2.53 21.79 10.19 7.67 23.13 6.57v2.38C10.52 10.07 4.22 24.97 12.5 34.77c1.46 1.73 5.08 4.46 7.29 4.91 1.69.34 1.22-.72 1.25-1.37.17-3.23.06-7.13-.05-10.11-.02-.54-.18-.94-.6-1.31h-4.18c.09-.79-.3-1.82.36-2.39h6.45Zm3.23-17.56c.06-.19.34-.33.57-.35.45-.03 2.62.47 3.2.63 3.59 1.02 7.78 4.01 9.8 7.17 1.22 1.91.84 1.99-1.35 2.42-1.47-2.83-3.97-5.08-6.85-6.41-.5-.23-2.55-1.18-2.87-.72l-.1 29.73c.35.67 1.35.05 1.95-.16 1.7-.59 4.15-2.14 5.44-3.41.55-.55 2.57-3.61 2.79-3.68.52-.17 1.55.47 1.98.83-2.63 5.41-8.53 9.42-14.57 9.66V6.94Z" class="cls-1"/></g></svg>