<svg xmlns="http://www.w3.org/2000/svg" id="Layer_2" data-name="Layer 2" viewBox="0 0 1056.12 371.7"><defs><style>.cls-1{fill:#eb2427}</style></defs><g id="Layer_1-2" data-name="Layer 1"><path d="M238.76 196.81c-44.01 34.88-87.57 69.4-131.52 104.24-8.4-9.68-16.64-19.18-25.27-29.11 34.02-27.28 67.88-54.44 101.92-81.75-12.46-14.93-27.53-24.63-46.91-26.34-42.33-3.74-83.67 25.64-94.22 66.9-4.98 19.49-1.84 38.01 7.85 55.4 11.94 21.4 29.54 36.36 53.12 43.24 25.79 7.52 49.34 1.62 69.86-15.2 7.78-6.38 14.18-14.45 21.19-21.77.88-.92 1.59-2 2.56-3.23 11.49 7.21 22.81 14.3 34.48 21.62-5.59 9.84-11.45 19.17-19.4 26.93-16.06 15.69-35.36 25.52-57.17 30.34-28.88 6.37-57.25 4.59-84.55-7.1-31.72-13.58-53.21-37.07-63.61-69.9-11.64-36.77-9.23-72.92 9.4-106.97 19.21-35.11 49.46-55.2 89.01-60.85 31.59-4.51 61.06 1.86 88.16 18.85 12.43 7.79 23.02 17.49 30.75 30.03 4.97 8.06 9.53 16.36 14.35 24.69Zm558.05 46.82c.22 70.04-56.51 127.84-125.6 127.98-68.26.13-124.32-56.87-124.53-126.6-.21-69.99 54.82-125.55 124.36-125.56 70.22 0 125.55 54.63 125.77 124.19Zm-124.25 86.49c4.07-.48 9.05-.69 13.85-1.7 37.9-7.98 65.92-41.91 66.31-81.18.3-30.28-12.08-54.99-36.6-72.66-24.08-17.35-50.33-20.21-77.38-7.03-42.36 20.64-63.86 78.08-34.18 123.73 15.67 24.1 37.91 37.62 68 38.83Zm200.55 37.38h-42.68c-.11-1-.3-1.87-.3-2.74.05-46.76-.93-93.55.45-140.28 1.51-51.25 33.89-90.24 87.07-99.58 27.41-4.81 54.36-2.96 79.84 8.92 32.76 15.28 51.02 41.77 56.83 77.03 1.34 8.17 1.67 16.58 1.7 24.88.16 42.2.07 84.41.07 126.61v5.15h-42.19c-.11-1.79-.32-3.54-.32-5.29-.02-42.07-.03-84.15 0-126.22 0-12.33-1.25-24.41-6.42-35.81-9.98-22.04-27.51-34.08-50.91-37.85-15.03-2.42-29.89-1.24-43.97 5.07-23 10.29-34.85 28.79-38.29 53.15-.76 5.39-.83 10.9-.84 16.36-.06 41.94-.04 83.89-.04 125.83zm-336.28-35.89v37.46c-16.22 3.42-31.82 2.18-46.21-5.99-29.76-16.88-46.25-42.51-46.47-76.89-.49-76.05-.16-152.11-.15-228.17 0-1.27.12-2.54.2-4.02h42.63v72.29h49.93v39.76h-49.51c-.1 1.64-.25 2.9-.25 4.15-.01 38.81-.11 77.62.04 116.43.06 16.27 5.51 30.13 19.78 39.33 9.07 5.84 19.15 6.97 30.02 5.65Zm-225.16 35.9h-42.5V7.86h42.5zm87.36-.01h-42.81V126.67h42.81z"/><path d="M345.66 35.18c.05-17.85 14.56-32.29 32.34-32.19 17.45.1 31.65 14.7 31.61 32.5-.04 17.79-14.31 32.14-31.92 32.11-17.84-.03-32.09-14.45-32.04-32.42Z" class="cls-1"/><path d="M377.75 70.58h-.06c-9.38-.02-18.17-3.67-24.75-10.28-6.64-6.67-10.29-15.6-10.26-25.14.03-9.45 3.74-18.32 10.45-24.98 6.63-6.58 15.4-10.19 24.7-10.19h.2c19.11.1 34.62 16.03 34.58 35.49-.05 19.36-15.67 35.09-34.84 35.09Zm-29.11-35.39c-.02 7.94 3.01 15.37 8.52 20.91 5.46 5.48 12.75 8.51 20.54 8.52h.05c15.89 0 28.84-13.06 28.88-29.13.04-16.19-12.81-29.43-28.64-29.51h-.16c-7.72 0-14.99 3-20.5 8.46-5.58 5.53-8.66 12.9-8.68 20.76Z" class="cls-1"/></g></svg>