<svg xmlns="http://www.w3.org/2000/svg" width="24" height="24" fill="none" viewBox="0 0 24 24"><path fill="#000" d="M5.223 2.252c-.497 0-.974.198-1.325.55L2.598 4.1A3.75 3.75 0 0 0 7.5 9.753c.627.47 1.406.75 2.25.75s1.624-.28 2.25-.75c.626.47 1.406.75 2.25.75s1.623-.28 2.25-.75A3.75 3.75 0 0 0 21.402 4.1l-1.3-1.3a1.88 1.88 0 0 0-1.325-.549z"/><path fill="#000" fill-rule="evenodd" d="M3 20.252v-8.755c1.42.674 3.08.673 4.5 0a5.2 5.2 0 0 0 2.25.505c.804 0 1.568-.182 2.25-.506a5.2 5.2 0 0 0 2.25.506c.804 0 1.567-.181 2.25-.505 1.42.673 3.08.674 4.5 0v8.755h.75a.75.75 0 0 1 0 1.5H2.25a.75.75 0 0 1 0-1.5zm3-6a.75.75 0 0 1 .75-.75h3a.75.75 0 0 1 .75.75v3a.75.75 0 0 1-.75.75h-3a.75.75 0 0 1-.75-.75zm8.25-.75a.75.75 0 0 0-.75.75v5.25c0 .415.336.75.75.75h3a.75.75 0 0 0 .75-.75v-5.25a.75.75 0 0 0-.75-.75z" clip-rule="evenodd"/></svg>