<svg xmlns="http://www.w3.org/2000/svg" width="24" height="24" fill="none" viewBox="0 0 24 24"><path fill="#000" fill-rule="evenodd" d="M12 2.255c-5.385 0-9.75 4.365-9.75 9.75s4.365 9.75 9.75 9.75 9.75-4.366 9.75-9.75-4.365-9.75-9.75-9.75m-2.625 6c-.54 0-.828.418-.936.634a1.96 1.96 0 0 0-.189.866c0 .298.059.605.189.865.108.216.395.635.936.635.54 0 .828-.42.936-.635.13-.26.189-.567.189-.865s-.059-.606-.189-.866c-.108-.216-.395-.634-.936-.634m4.314.634c.108-.216.395-.634.936-.634.54 0 .828.418.936.634.13.26.189.567.189.866 0 .298-.059.605-.189.865-.108.216-.395.635-.936.635-.54 0-.828-.42-.936-.635a1.96 1.96 0 0 1-.189-.865c0-.299.059-.606.189-.866m2.023 6.828a.75.75 0 0 0-1.06-1.06 3.75 3.75 0 0 1-5.304 0 .75.75 0 1 0-1.06 1.06 5.25 5.25 0 0 0 7.424 0" clip-rule="evenodd"/></svg>