<svg xmlns="http://www.w3.org/2000/svg" id="Layer_2" data-name="Layer 2" viewBox="0 0 96.95 96.95"><defs><style>.cls-1{fill:#454547}</style></defs><g id="Layer_1-2" data-name="Layer 1"><rect width="96.95" height="96.95" rx="9.77" ry="9.77" style="fill:#fff"/><path d="M10.13 16.27c.43-1 1.16-1.79 2.33-1.82 21.17.06 42.36-.09 63.52.07.66.05 1.8 1.22 1.8 1.82v2.95c2.37.25 5.46-.35 7.74.04 1 .17 1.84 1.13 1.92 2.15v58.9c-.33 2.69-2.02 5.02-4.53 6.04l-1.66.53H16.32c-3.22-.68-5.52-2.97-6.19-6.19zm62.83 3.02h-58v60.94c0 .56 1.07 1.71 1.69 1.78l64.17.04c.66-.05 1.8-1.22 1.8-1.82V24.12h-4.83v43.5h-4.83z" class="cls-1"/><path d="m21.72 53.16 25.38.07c1.04.34 1.6 1.15 1.7 2.23.55 6.21-.43 13.2 0 19.5-.02 1.25-1.08 2.32-2.34 2.34l-24.97-.11c-.92-.29-1.6-1.11-1.69-2.09V55.31c.1-1.07.89-1.93 1.92-2.15m22.24 4.79H24.63v14.5h19.33zM19.79 24.12h48.33v4.83H19.79zm0 9.67h48.33v4.83H19.79zm0 9.67h48.33v4.83H19.79zm33.83 9.66h14.5v4.83h-14.5zm0 9.67h14.5v4.83h-14.5zm0 9.66h14.5v4.83h-14.5zm19.34 0h4.83v4.83h-4.83z" class="cls-1"/></g></svg>