<svg xmlns="http://www.w3.org/2000/svg" id="Layer_2" data-name="Layer 2" viewBox="0 0 96.95 96.95"><defs><style>.cls-2{fill:#454547}</style></defs><g id="Layer_1-2" data-name="Layer 1"><rect width="96.95" height="96.95" rx="9.77" ry="9.77" style="fill:none"/><path d="M28.4 50.73c4.87-.36 9.45.37 13.91 2.34 10.89 4.8 19.15 20.3 33.72 13.12 1.56-.77 2.93-3.66 3.85-.44-4.34 4.88-9.94 5.2-15.94 3.69-13.4-3.37-18.9-18.46-35.19-16.19-3.54.49-8.09 3.89-9.29 7.28-.94 2.65 2.6 2.94 3.34 2.41.92-.67 1.47-4.7 5.57-5.77 12.49-3.26 20.39 10.41 30.86 14.53 2.65 1.04 6.52 2.26 9.33 2.35.7.02 9.71-1.53 7.63 1.21-1.65 2.19-14.9-.17-17.93-1.37-8.81-3.49-21.29-19.87-31.08-13.62-2.13 1.36-2.38 4.75-3.48 5.13-1.95.67-5.38-1.52-7.58-1.17.24-2.78 1.67-5.78 3.36-7.98 9.01-11.7 24.7-22.62 34.34-34.31.92-1.88 3.4-1.19 2.46.62l-27.9 28.18Z" class="cls-2"/><path d="M80.49 71.58c1.45 1.44-2.44 3.08-3.06 2.45-1.25-1.28 2.07-3.43 3.06-2.45" class="cls-2"/></g></svg>