<svg xmlns="http://www.w3.org/2000/svg" data-name="Layer 2" viewBox="0 0 97.94 96.95"><g data-name="Layer 1"><rect width="96.95" height="96.95" rx="9.77" ry="9.77" style="fill:#fff"/><path d="m71.62 50.58 5.8.11.28.3c.48 2.31 6.67 18.46 6.22 19.37-.14.28-.47.4-.77.4H71.63c-6.37 21.19-30.64 31.21-50.22 20.44C4.03 81.66-1.9 59.27 8.56 42.33l-3.6-10.88c-.12-.44.07-.82.49-.97l15.26-.05c2.29-1.04 4.48-2.23 6.89-2.99 18.67-5.88 38.45 4.52 44.02 23.14M24.5 30.44H37l.49.67 6.16 18.96c-.04.14-.39.53-.46.53h-4.75c1.63 2.49 5.52 1.42 5.25 5.34-.19 2.72-3.1 2.16-3.45 4.11-.15.83-.06 1.35.37 2.05 1.03 1.67 2.42.28 3.02 1.43l6.22 19.1c-.04.14-.39.53-.46.53H42.7c.3 2.34-1.1 3.84-3.04 4.81-.96.48-1.44.62-2.45 0-1.5-.91-1.06-2.7-.73-4.1l-.9-.66-17.88-.14-4.3-12.37c-1.29-1.76-3.08-1.04-3.7.86-.18.56-.76 4.59-.67 5.06.15.79 2.19 3.6 2.79 4.39 9.28 12.15 25.9 16.37 39.94 10.13 1.05-.47 4.31-2.05 5.02-2.74.44-.43.4-1.7.1-2.26-.36-.26-2.22.77-3.3-.76-1.82-2.57 2.4-3.35 2.53-4.66.06-.56-.5-.76-.75-1.18-.62-1.06-1.01-4.48-.68-5.65.23-.8 1.04-1.61 1.84-1.84 2.19-.64 6.23 2.1 6.94-1.29H51.93l-.49-.67-6.16-18.96c.04-.14.39-.53.46-.53h12.11c-.75-1.35-.33-2.95.87-3.88 1.27-.97 2.46-.91 2.01-3.17l-.15-.23c-1.69-.04-2.25.89-3.89-.37-2.75-2.11-2.43-4.66-3.48-7.37-.69-1.79-1.91-3.27-1.58-5.5-7.09-2.91-14.89-3.61-22.31-1.52l-4.8 1.88ZM13.84 49.05 8.1 32.02l-1.23-.03 5.74 17.03zm-.39-15.51-.68-1.55H9.96l.39 1.55zm4.65 0-.68-1.55h-2.81l.39 1.55zm4.66 0-.68-1.55h-2.81l.39 1.55zm4.65 0-.68-1.55h-2.81l.39 1.55zm4.65 0-.68-1.55h-2.81l.39 1.55zm4.65 0-.68-1.55h-2.81l.39 1.55zm-22.68 1.55h-3.1l.39 1.55h3.1zm4.65 0h-3.1l.39 1.55h3.1zm4.66 0h-3.1l.39 1.55h3.1zm4.65 0h-3.1l.39 1.55h3.1zm4.65 0h-3.1l.39 1.55h3.1zm4.65 0h-3.1l.39 1.55h3.1zM15 38.19h-3.1l.68 1.55h2.81zm4.65 0h-3.1l.68 1.55h2.81zm4.66 0h-3.1l.68 1.55h2.81zm4.65 0h-3.1l.68 1.55h2.81zm4.65 0h-3.1l.68 1.55H34zm4.65 0h-3.1l.68 1.55h2.81zm-21.71 4.65-.68-1.55h-2.81l.39 1.55zm4.65 0-.68-1.55h-2.81l.39 1.55zm4.66 0-.68-1.55h-2.81l.39 1.55zm4.65 0-.68-1.55h-2.81l.39 1.55zm4.65 0-.68-1.55h-2.81l.39 1.55zm4.65 0-.68-1.55h-2.81l.39 1.55zM17.13 44.4h-3.1l.39 1.55h3.1zm4.66 0h-3.1l.39 1.55h3.1zm4.65 0h-3.1l.39 1.55h3.1zm4.65 0h-3.1l.39 1.55h3.1zm4.65 0h-3.1l.39 1.55h3.1zm4.65 0h-3.1l.39 1.55h3.1zM18.1 47.5H15l.68 1.55h2.81zm4.66 0h-3.1l.68 1.55h2.81zm4.65 0h-3.1l.68 1.55h2.81zm4.65 0h-3.1l.68 1.55h2.81zm4.65 0h-3.1l.68 1.55h2.81zm4.65 0h-3.1l.68 1.55h2.81zm12.79 21.7-5.74-17.03-1.23-.03 5.74 17.03zm-.38-15.5-.68-1.55h-2.81l.39 1.55zm4.65 0-.68-1.55h-2.81l.39 1.55zm4.65 0-.68-1.55h-2.81l.39 1.55zm4.65 0-.68-1.55h-2.81l.39 1.55zm4.66 0-.68-1.55h-2.81l.39 1.55zm4.65 0-.68-1.55h-2.81l.39 1.55zm-22.68 1.55h-3.1l.39 1.55h3.1zm4.65 0h-3.1l.39 1.55h3.1zm4.65 0h-3.1l.39 1.55h3.1zm4.65 0h-3.1l.39 1.55h3.1zm4.66 0h-3.1l.39 1.55h3.1zm4.65 0h-3.1l.39 1.55H78zm-22.29 3.1h-3.1l.68 1.55h2.81zm4.65 0h-3.1l.68 1.55h2.81zm4.65 0h-3.1l.68 1.55h2.81zm4.65 0h-3.1l.68 1.55h2.81zm4.66 0h-3.1l.68 1.55h2.81zm4.65 0h-3.1l.68 1.55h2.81zM56.87 63l-.68-1.55h-2.81l.39 1.55zm4.65 0-.68-1.55h-2.81l.39 1.55zm4.65 0-.68-1.55h-2.81l.39 1.55zm4.65 0-.68-1.55h-2.81l.39 1.55zm4.66 0-.68-1.55h-2.81l.39 1.55zm4.65 0-.68-1.55h-2.81l.39 1.55zM20.04 81.61 14.3 64.58l-1.23-.03 5.74 17.03zm-.39-15.51-.68-1.55h-2.81l.39 1.55zm4.66 0-.68-1.55h-2.81l.39 1.55zm4.65 0-.68-1.55h-2.81l.39 1.55zm4.65 0-.68-1.55h-2.81l.39 1.55zm4.65 0-.68-1.55h-2.81l.39 1.55zm4.65 0-.68-1.55h-2.81l.39 1.55zm14.54-1.55h-3.1l.39 1.55h3.1zm4.65 0H59l.39 1.55h3.1zm4.65 0h-3.1l.39 1.55h3.1zm4.66 0h-3.1l.39 1.55h3.1zm4.65 0h-3.1l.39 1.55h3.1zm4.65 0h-3.1L78 66.1h3.1zm-60.47 3.1h-3.1l.39 1.55h3.1zm4.65 0h-3.1l.39 1.55h3.1zm4.65 0h-3.1l.39 1.55h3.1zm4.65 0h-3.1l.39 1.55h3.1zm4.65 0h-3.1l.39 1.55h3.1zm4.65 0h-3.1l.39 1.55h3.1zm14.93 0h-3.1L56 69.2h2.81zm4.65 0h-3.1l.68 1.55h2.81zm4.65 0h-3.1l.68 1.55h2.81zm4.66 0h-3.1l.68 1.55h2.81zm4.65 0h-3.1l.68 1.55h2.81zm4.65 0h-3.1l.68 1.55h2.81zM21.2 70.76h-3.1l.68 1.55h2.81zm4.66 0h-3.1l.68 1.55h2.81zm4.65 0h-3.1l.68 1.55h2.81zm4.65 0h-3.1l.68 1.55h2.81zm4.65 0h-3.1l.68 1.55h2.81zm4.65 0h-3.1l.68 1.55h2.81zm-21.7 4.65-.68-1.55h-2.81l.39 1.55zm4.65 0-.68-1.55h-2.81l.39 1.55zm4.65 0-.68-1.55h-2.81l.39 1.55zm4.65 0-.68-1.55h-2.81l.39 1.55zm4.65 0-.68-1.55h-2.81l.39 1.55zm4.65 0-.68-1.55h-2.81l.39 1.55zm-22.67 1.55h-3.1l.39 1.55h3.1zm4.65 0h-3.1l.39 1.55h3.1zm4.65 0h-3.1l.39 1.55h3.1zm4.65 0h-3.1l.39 1.55h3.1zm4.65 0h-3.1l.39 1.55h3.1zm4.66 0h-3.1l.39 1.55h3.1zm-22.29 3.1h-3.1l.68 1.55h2.81zm4.65 0h-3.1l.68 1.55h2.81zm4.65 0h-3.1l.68 1.55H34zm4.65 0h-3.1l.68 1.55h2.81zm4.65 0h-3.1l.68 1.55h2.81zm4.66 0h-3.1l.68 1.55h2.81zM85.51 1.22l1.62 6.71 6.64-.5c.89.21.76.72.57 1.46-.22.87-2.56 5.58-2.38 5.83l5.66 3.3c.42.35.42 1.02 0 1.37l-5.66 3.3c-.22.31 2.77 5.82 2.49 6.83l-.68.46-6.64-.5-1.58 6.61c-.42.48-.88.34-1.35.04-.74-.48-4.56-4.21-4.93-4.14-1.6 1.12-3.19 3.14-4.79 4.14-.48.3-.93.45-1.35-.04l-1.58-6.61-6.64.5c-.89-.21-.76-.72-.57-1.46.22-.86 2.56-5.58 2.38-5.83l-5.66-3.3c-.4-.33-.4-.9-.09-1.32l5.75-3.36c.21-.3-2.77-5.82-2.49-6.83l.68-.46 6.64.5 1.58-6.61c.42-.49.87-.34 1.35-.04.82.52 4.46 4.09 4.79 4.14l5.04-4.23c.38-.28.81-.24 1.19.02Zm-7.75 8.72c-10.23 1.38-9.45 17.81 1.66 17.71 12.25-.11 11.52-19.49-1.66-17.71M61.28 8.76c.76-.13 1.22.42.93 1.13l-28.2 14.26-.64.06c-.8-.4-.68-1.23.11-1.56zm31 23.26c.8-.22 1.27.58.9 1.29l-9.56 23.4c-.83.41-1.44-.46-1.03-1.23l9.08-22.71c.11-.28.31-.67.62-.75Zm-9.3 6.2c.77-.23 1.31.59.88 1.28l-5.02 7.98c-.47.14-.98-.16-1.03-.66l5.18-8.59Z"/><path d="M58.18 21.17c.65-.16 1.17.34.99.99l-6.57 5.08-.46.11c-.7-.15-.94-.88-.41-1.38l6.46-4.8ZM44.03 34.75c1.45-.24 1.51.55 2.36.84.81.28 1.36.05 2.24.67 1.28.9.89 1.7 1.36 2.71.45.94 1.89 1.16 1.19 2.95-.4 1.03-.96.85-1.5 1.41-.38.4-.57 1.18-1.06 1.65-1.91 1.84-5.7.95-5.09-1.99.15-.7.97-1.27.92-1.97s-2.1-3.03-2.1-4.28c0-.89.76-1.85 1.67-1.99Z"/></g></svg>