<svg xmlns="http://www.w3.org/2000/svg" id="Layer_2" data-name="Layer 2" viewBox="0 0 96.95 96.95"><defs><style>.cls-2{fill:#454547}</style></defs><g id="Layer_1-2" data-name="Layer 1"><rect width="96.95" height="96.95" rx="9.77" ry="9.77" style="fill:none"/><path d="M6.13 64.19c-.04.21.02.15.12.2.3.19.97.41 1.35.57 13.66 5.79 27.46 11.28 41.17 16.96l42.1-17.46c.16-.16-.5-.33-.59-.37-8.62-3.24-17.35-6.19-25.98-9.4-1.24-.46-.87-2.11.45-1.92l29.28 10.58c.76.38.88 1.16.27 1.74L48.69 84.01 2.75 65.06c-.58-.39-.67-1.21-.09-1.64l33.22-11.49c1.11 0 1.35 1.42.41 1.88L6.12 64.18Z" class="cls-2"/><path d="M69.17 45.43c-.33.3-3.52.79-4.27.99-5.91 1.56-6.93 4.87-8.02 10.45-.26 1.32-.36 3.37-.75 4.55-.31.92-1.63.88-1.86-.07-.44-2.6-.7-5.33-1.48-7.84-1.28-4.17-3.19-5.75-7.34-6.92-.99-.28-3.35-.58-4.07-.96-.67-.36-.59-1.46.12-1.76.92-.39 2.65-.61 3.73-.94 6.23-1.9 7.44-4.77 8.58-10.88.25-1.32.34-3.41.73-4.57.2-.59.92-.82 1.45-.47.61.41.44 1.26.5 1.87.33 3.07.55 7.42 2.34 10 2.19 3.16 6.68 3.94 10.13 4.96.54.32.69 1.17.21 1.6Zm-5-.98c-2.71-.77-5.47-2.2-7.04-4.62-.98-1.5-1.47-3.26-1.87-4.98-.53 1.81-1.08 3.67-2.15 5.26-1.6 2.39-4.25 3.78-6.95 4.57 1.77.65 3.61 1.28 5.07 2.52 2.37 2.01 3.26 4.95 4.02 7.86.69-2.96 1.61-6.11 4.02-8.13 1.43-1.2 2.99-1.76 4.75-2.29.13-.04.16.06.13-.18Zm8.02-34.62c.7-.16 1.11.18 1.21.86.3 2.07.14 4.11 1.03 6.1 1.24 2.8 4.36 3.05 6.91 3.97.6.4.44 1.32-.18 1.6-.54.24-1.87.35-2.57.53-3.81 1.02-4.24 3.12-4.95 6.66-.16.78-.21 2.08-.45 2.75-.29.81-1.42.82-1.74 0-.84-4.33-.5-7.88-5.42-9.3-.7-.2-2.14-.35-2.66-.63-.6-.31-.68-1.26-.07-1.61.54-.32 2.14-.54 2.88-.78 3.53-1.15 4.24-2.95 4.91-6.42.14-.73.34-3 .68-3.43.1-.13.27-.26.43-.3Zm.21 6.65c-.24-.04-.14.03-.19.13-.25.49-.38 1.05-.65 1.54-.87 1.6-2.33 2.66-4.01 3.31l1.9 1.03c1.47.99 2.39 2.61 2.77 4.32.23.04.14-.02.19-.13.16-.36.24-.86.4-1.24.87-2.05 2.14-3.3 4.25-4.07-2.19-.84-4.17-2.49-4.66-4.89m-32.57 1.2c1.08-.09.85 1.8.94 2.5.18 1.37.43 3 1.61 3.87 1.12.82 2.62 1.05 3.9 1.49.28.25.38.73.15 1.04-.32.43-2.27.62-2.95.89-2.69 1.04-2.44 4.18-3.06 6.53-.28.57-1.11.53-1.35-.06-.28-.72-.32-2.23-.55-3.11-.49-1.95-1.09-2.82-3.04-3.45-.53-.17-2.19-.39-2.44-.76-.26-.4-.08-.91.34-1.11.66-.32 1.83-.42 2.62-.76 2.78-1.18 2.65-3.96 3.15-6.54.09-.26.4-.5.67-.53Zm.02 5.2c-.24-.04-.14.03-.19.13-.11.21-.16.5-.28.72-.59 1.09-1.54 1.96-2.73 2.35-.04.24.03.14.13.19 1.47.75 2.49 1.58 2.89 3.28.21.04.15-.01.2-.12.18-.33.28-.79.48-1.16.51-.96 1.43-1.84 2.52-2.1.05-.21-.03-.15-.12-.2-.24-.16-.61-.26-.86-.42-.92-.58-1.82-1.58-2.04-2.67M30.52 38.9c4.51-.17 4.89 6.61.52 7.01-4.8.45-5.21-6.84-.52-7.01m-.2 2.01c-1.78.3-1.47 3.18.41 3.06 2.06-.13 1.87-3.45-.41-3.06M43.31 54.8c4.83-.71 5.05 7.16.07 6.65-3.62-.37-3.69-6.12-.07-6.65m.36 1.91c-1.6.27-1.36 2.92.24 2.81 1.73-.12 1.41-3.09-.24-2.81m34.46-13.15c3.63-.57 4.67 4.75 1.48 5.87-4.16 1.46-5.41-5.25-1.48-5.87m.46 1.91c-1.25.12-1.16 2.24.07 2.18s1.11-2.29-.07-2.18" class="cls-2"/></g></svg>