<svg xmlns="http://www.w3.org/2000/svg" data-name="Layer 2" viewBox="0 0 96.95 96.95"><g data-name="Layer 1"><rect width="96.95" height="96.95" rx="9.77" ry="9.77" style="fill:#fff"/><path d="m74.57 49.55 13.61.05.59.59-.04 24.82c-.3.58-.71.67-1.31.73-3.99.36-8.51-.29-12.56 0l-1-.69-.1-24.28c-.02-.58.2-1.09.81-1.22m11.07 2.67h-5.93l-2.2 11h2.46l.19.35c-.34 2.37-1.39 5.03-1.61 7.37-.02.25-.18.65.23.57l6.7-10.32h-3.05l3.22-8.97Zm-3.05 26.39v4.65c0 .96-1.9 2.71-2.97 2.62H54.69l-1.31.89-33.09.12c-2.36-.62-2.18-4.09.33-4.39h32.05c.66.05 1.18.47 1.61.93l25.38-.04c.13-.05.55-.4.55-.46v-4.31h2.37Zm-47-60.69c8.69-1.19 9.66 11.58 1.63 12.28-8.04.7-9.15-11.26-1.63-12.28M8.17 73.54h56.96v1.69H8.17zm27.3-7.28v4.91h-7.46c-.01-1.63.13-3.28.34-4.91zm18.98 0 .68 4.91h-7.46l-.34-4.91zm-36.44 4.91.71-4.62.23-.28h6.78l.22.38c-.33 1.23-.09 2.9-.31 4.1-.03.19-.09.32-.25.42h-7.37Zm26.95-4.91.34 4.91h-7.46v-4.91zm-28.65 0-.68 4.91H8.51l1.02-4.91zm48.48 4.91h-7.03l-.23-.28c.05-1.33-.65-3.03-.64-4.28 0-.2.01-.22.19-.35h6.44c.7 1.48.87 3.3 1.27 4.91M35.47 59.83v4.06h-6.95l.33-4.06zm18.64 4.06h-6.95l-.34-4.06h6.53l.22.29zm-9.66-4.06.34 4.06h-6.95v-4.06zm-18.14 0-.17 4.06h-6.95l.51-4.06zm-8.98 0-.51 4.06h-6.78c.53-1.3.51-2.83 1.1-4.06zm44.92 0 .85 4.06h-6.62l-.5-4.06zm13.61-14.32c.26-.21.56-.2.88-.23 2.93-.25 6.2.21 9.17 0 1.36.18 1.52 2.12-.19 2.36s-7.01.22-8.8.02c-1.22-.14-2.06-1.34-1.05-2.15Zm-40.39 8.57v3.39h-6.45l.17-3.39zm-8.65 0-.17 3.39h-6.44l.37-3.1.22-.29zm17.29 0 .17 3.39h-6.44v-3.39zm8.48 0 .5 3.39h-6.44l-.17-3.39zM32.58 80.14V77.6h7.88c.42.56.41 1.99 0 2.54zm29.16-22.67h-6.27l-.51-3.38h5.85c.51.99.54 2.3.93 3.38m-43.57-3.39-.37 3.1-.22.29h-6.02l.68-3.39zm17.3-5.24v2.88h-6.1c.35-.93-.12-2.11.42-2.88zm16.78 2.87H46.4c-.5-.75-.14-1.95-.42-2.88h5.68zm-24.92-2.87-.34 2.87h-5.93l.34-2.87zm16.27 0 .17 2.87h-5.93v-2.87zm-24.58 0-.34 2.87h-5.76l.51-2.87zm41.36 2.87h-5.76l-.34-2.88h5.34c.42.82.55 1.94.76 2.88m-24.91-7.78v2.54h-5.6l.17-2.54zm15.59 0 .34 2.54h-5.59l-.17-2.54zm-7.8 0 .17 2.54h-5.59v-2.54zm-15.59 0c-.31.82.08 1.88-.42 2.54h-5.34l.34-2.54zm31.02 0 .51 2.54h-5.17c-.51-.68-.32-1.72-.59-2.54zm-38.99 0-.2 2.26-.22.28h-5.17l.51-2.54zm7.41-30.08c.46-.14.84-.01 1.23.23.42.26 2.77 2.69 2.86 3.07.24 1.08-.74 1.89-1.72 1.38-.4-.21-3.07-2.96-3.13-3.32-.09-.47.3-1.23.77-1.37Zm15.77 15.56c.21-.04.38-.05.6 0 .37.08 2.9 2.51 3.18 2.93.79 1.19-.34 2.41-1.59 1.76-.25-.13-2.55-2.41-2.73-2.69-.44-.7-.38-1.8.54-1.99Zm-13.05 0c1.05-.19 1.72.91 1.21 1.9-.13.24-2.55 2.66-2.8 2.79-1.2.63-2.33-.49-1.66-1.65.23-.4 2.89-2.97 3.25-3.03Zm6.02 8.38c-.19-.15-.36-.62-.4-.87-.09-.73-.09-3.01.02-3.72.23-1.47 2.14-1.33 2.36-.17.11.61.09 3.41 0 4.05-.15.93-1.3 1.26-1.97.72ZM45 23.17c.47-.5 3.84-.49 4.61-.37 1.41.22 1.35 2.13.18 2.35-.55.1-3.68.1-4.23 0-.84-.16-1.04-1.47-.55-1.98Zm-7.54-12.86c.53.5.48 3.79.34 4.57-.27 1.52-2.12 1.33-2.33.21-.1-.54-.1-3.68 0-4.22.16-.83 1.47-1.03 1.99-.55ZM23.38 22.99c.46-.11 4.11-.12 4.51 0 .73.22.82 1.51.21 2s-3.98.45-4.75.16c-1.06-.4-1.03-1.92.03-2.16m21.87-9.14c1.13-.34 1.95.57 1.49 1.65-.08.19-2.61 2.7-2.88 2.88-1.08.72-2.26-.37-1.74-1.4.15-.3 2.92-3.07 3.13-3.14Z" style="fill:#454547"/></g></svg>