<svg xmlns="http://www.w3.org/2000/svg" width="24" height="24" fill="none" viewBox="0 0 24 24"><path fill="#000" fill-rule="evenodd" d="M1.5 5.63c0-1.036.84-1.875 1.875-1.875h17.25c1.035 0 1.875.84 1.875 1.875v12.75c0 1.035-.84 1.875-1.875 1.875H3.375A1.875 1.875 0 0 1 1.5 18.38zm1.5 0v1.5c0 .207.168.375.375.375h1.5a.375.375 0 0 0 .375-.375v-1.5a.375.375 0 0 0-.375-.375h-1.5A.375.375 0 0 0 3 5.63m16.125-.375a.375.375 0 0 0-.375.375v1.5c0 .207.168.375.375.375h1.5A.375.375 0 0 0 21 7.13v-1.5a.375.375 0 0 0-.375-.375zM21 9.38a.375.375 0 0 0-.375-.375h-1.5a.375.375 0 0 0-.375.375v1.5c0 .207.168.375.375.375h1.5A.375.375 0 0 0 21 10.88zm0 3.75a.375.375 0 0 0-.375-.375h-1.5a.375.375 0 0 0-.375.375v1.5c0 .207.168.375.375.375h1.5A.375.375 0 0 0 21 14.63zm0 3.75a.375.375 0 0 0-.375-.375h-1.5a.375.375 0 0 0-.375.375v1.5c0 .207.168.375.375.375h1.5A.375.375 0 0 0 21 18.38zM4.875 18.755a.375.375 0 0 0 .375-.375v-1.5a.375.375 0 0 0-.375-.375h-1.5A.375.375 0 0 0 3 16.88v1.5c0 .207.168.375.375.375zm-1.5-3.75h1.5a.375.375 0 0 0 .375-.375v-1.5a.375.375 0 0 0-.375-.375h-1.5A.375.375 0 0 0 3 13.13v1.5c0 .207.168.375.375.375m0-3.75h1.5a.375.375 0 0 0 .375-.375v-1.5a.375.375 0 0 0-.375-.375h-1.5A.375.375 0 0 0 3 9.38v1.5c0 .207.168.375.375.375m4.125 0a.75.75 0 0 0 0 1.5h9a.75.75 0 1 0 0-1.5z" clip-rule="evenodd"/></svg>