<svg xmlns="http://www.w3.org/2000/svg" width="24" height="24" fill="none" viewBox="0 0 24 24"><path fill="#000" fill-rule="evenodd" d="M7.5 5.252a3 3 0 0 1 3-3h3a3 3 0 0 1 3 3v.205q1.399.129 2.774.334c1.454.218 2.476 1.483 2.476 2.917v3.033c0 1.211-.734 2.353-1.936 2.752A24.7 24.7 0 0 1 12 15.753c-2.73 0-5.357-.443-7.814-1.26-1.202-.4-1.936-1.54-1.936-2.752V8.708c0-1.434 1.022-2.699 2.476-2.917A49 49 0 0 1 7.5 5.457zm7.5 0v.091a50 50 0 0 0-6 0v-.09a1.5 1.5 0 0 1 1.5-1.5h3a1.5 1.5 0 0 1 1.5 1.5m-3 8.25a.75.75 0 1 0 0-1.5.75.75 0 0 0 0 1.5" clip-rule="evenodd"/><path fill="#000" d="M3 18.402v-2.796a4.3 4.3 0 0 0 .713.31A26.2 26.2 0 0 0 12 17.253c2.892 0 5.68-.468 8.287-1.335q.378-.127.713-.31v2.795c0 1.452-1.047 2.728-2.523 2.924a49 49 0 0 1-6.477.426c-2.196 0-4.358-.145-6.477-.426C4.047 21.13 3 19.854 3 18.402"/></svg>