<svg xmlns="http://www.w3.org/2000/svg" id="Layer_2" data-name="Layer 2" viewBox="0 0 96.95 96.95"><defs><style>.cls-1{fill:#454547}</style></defs><g id="Layer_1-2" data-name="Layer 1"><rect width="96.95" height="96.95" rx="9.77" ry="9.77" style="fill:#fff"/><path d="M75.06 47.03H41.55l-.28.28v4.71h29.08s.33.28.37.37v15.5c-.04.09-.33.37-.37.37H41.64v17.63c0 .08-.43.68-.55.75-.92.46-1.57-.65-1.48-1.48.4-5.33-.51-11.38 0-16.62.04-.37.19-1.17.39-1.46.11-.16.9-.66 1-.66h2.68V53.86h-3.05c-.39 0-1.12-.94-1.19-1.4-.17-1.06-.15-4.61-.01-5.72.1-.85.61-1.36 1.43-1.52l34.12-.05c.47-.2 1.93.71 1.93 1.02v40.07c-.47.8-1.85.38-1.85-.37V47.02Zm-13.67 6.83H45.7v12.56h15.69zm7.57 0h-5.72v5.17h5.72zm0 7.2h-5.72v5.35h5.72zm-1.1-27.88v9.14c0 1.32-2.03 1.13-2.03.18v-9.32H63.8v9.32c0 .94-2.03 1.13-2.03-.18v-9.14h-9.32c-1.23 0-2.23-1.78-1.61-2.9l9.3-16.92c.57-.77 1.56-.98 2.46-1.05 6.91-.52 14.45.41 21.43 0 1.7 0 2.63 1.6 1.78 3.09-3.04 4.99-5.47 10.54-8.49 15.51-.27.44-.6 1.13-.95 1.45-.21.2-1.39.82-1.58.82h-6.92ZM84.1 14.16H62.22c-.14 0-.71.47-.8.67l-8.89 16.31h22.25l9.32-16.99Z" class="cls-1"/><path d="M19.67 85.34c-.24 1.14-1.85 1.24-2.04-.37V38.62c0-.76.29-1.43.98-1.79l33.08-.13c1.7-.09 1.36 4.74.98 5.11-.43.43-1.62.18-1.62-.42v-2.86H19.66v46.8Zm-11.5 2.71 80.1-.05c1.94.08 1.72 2.12-.19 2.05H8.86c-.57-.05-1.29-.11-1.49-.74-.19-.59.24-1.13.8-1.26m18.84-75.87c10.1-1.06 11.97 14.15 2.14 15.62-10.79 1.61-12.55-14.53-2.14-15.62m.56 1.84c-7.87.31-7.46 12.82 1.05 11.96 7.29-.74 6.72-12.27-1.05-11.96m25.7 60.89h-5.91v10.8c0 .33-1.68 1.26-1.86-.73-.32-3.51.24-7.51.02-11.07.1-.89.8-.97 1.55-1.03 1.07-.09 6.77-.13 7.44.15.2.08.38.24.51.41l.09 12.09c-.2 1.07-1.84.73-1.84 0z" class="cls-1"/><path d="M27.24 55.7h7.39v6.09h-7.39zm7.38-7.94v5.82l-.27.28h-6.84l-.27-.28v-5.82zm0 21.98h-7.38v-5.82l.27-.28h6.84l.27.28zm0 2.03v5.81l-.27.28h-6.84l-.27-.28v-5.81zm0 7.94v3.42c0 .07-.42.65-.46.65H27.7s-.46-.58-.46-.65v-3.42h7.39Zm-7.38-37.39c.12-.66.86-.62 1.38-.65.85-.06 5.25-.1 5.7.18.1.06.31.4.31.48v3.42h-7.39c.13-1.03-.17-2.44 0-3.42Zm9.55-31.25c1.23 1.24-2.69 4.31-2.91 2.07-.08-.79 1.97-2.97 2.91-2.07M20.54 26.2c.17-.04.33-.06.5-.04 2.26.3-1.73 4.82-2.36 2.37-.2-.76 1.22-2.2 1.86-2.33m-5.07-5.44c-.37-.37-.35-1.4.27-1.58.96-.28 4.15-.08 2.91 1.43-.44.54-2.79.55-3.18.15m3.77-9.89c1.22-.37 3.83 3.01 1.61 3.11-.67.03-3.38-2.57-1.61-3.11m18.1 8.31c.7-.21 2.74-.24 3.06.57.57 1.42-2.02 1.44-2.87 1.2-.78-.22-1-1.53-.19-1.77m-3.23 7.21c.94-.93 3.03 1.27 2.92 2.07-.05.36-.52.77-.87.8-.54.05-2.92-2-2.05-2.87M27.1 32.4c-.39-.39-.38-2.77.15-3.18 1.55-1.18 1.71 1.96 1.43 2.91-.19.62-1.21.64-1.58.27m.79-25c1.18.06 1.29 3.65 0 3.64-1.51-.01-1.44-3.7 0-3.64M64.9 18.22c.39-.72 1.5-3.95 2.72-2.72.74.75-.38 1.94-.51 2.72h6.83c.29-.79 1.56-3.9 2.72-2.72.69.69-.26 2.09-.69 2.72h3.42c.12 0 .59.66.61.86.17 1.81-4.09.55-4.95 1.08l-2.03 3.79h3.42c.15 0 .63.71.61.99-.14 1.56-4 .57-5.1.89l-2 3.63c-2.89.1-.37-2.33-.25-3.66h-6.55c-.89.66-1.47 3.65-2.58 3.71-2.2.12-.1-2.82.28-3.71h-3.23c-.37 0-.56-.97-.43-1.35.31-.92 3.85-.29 4.74-.52l1.88-3.85h-3.23c-.6 0-.6-1.85 0-1.85h4.34Zm7.94 1.85H66.1l-2.12 3.88H71l1.85-3.88Z" class="cls-1"/></g></svg>