<svg xmlns="http://www.w3.org/2000/svg" viewBox="0 0 24 24"><path d="m8.023 7.688-1.822 5.487c-.122.37-.235.741-.373 1.106-.03.077-.141.172-.215.173-1.838.01-3.676.007-5.514.005-.025 0-.051-.014-.099-.027.028-.097.05-.19.08-.281q1.035-3.113 2.067-6.23c.047-.14.075-.257.28-.257 1.81.008 3.62.004 5.432.006.043 0 .086.009.163.018Zm-1.326 6.755.995-2.992q.592-1.777 1.18-3.555c.045-.138.08-.235.267-.233 1.803.008 3.606.004 5.409.005.051 0 .101.012.174.021-.026.097-.042.174-.067.249l-2.083 6.285c-.049.15-.1.243-.292.242-1.793-.008-3.587-.005-5.38-.006-.054 0-.107-.01-.2-.017Zm6.721-.006.204-.63q.98-2.945 1.955-5.894c.048-.145.088-.25.285-.25 1.811.009 3.622.005 5.433.007.037 0 .072.007.15.015-.028.092-.05.172-.077.252q-1.044 3.14-2.084 6.28c-.048.143-.082.251-.28.25-1.802-.008-3.604-.004-5.406-.006-.051 0-.104-.012-.179-.023ZM23.994.028 22.867 3.42q-.522 1.572-1.04 3.143c-.045.133-.079.24-.267.24-1.82-.008-3.642-.005-5.462-.006-.035 0-.07-.01-.124-.02.02-.084.035-.16.06-.234.697-2.103 1.399-4.204 2.093-6.31.054-.16.118-.23.299-.23 1.776.008 3.55.004 5.327.005.07 0 .14.012.24.021ZM17.288.006l-.89 2.672q-.645 1.943-1.288 3.888c-.045.137-.083.236-.267.236-1.802-.007-3.605-.003-5.407-.005-.052 0-.105-.014-.183-.026.067-.21.125-.407.19-.602.65-1.956 1.304-3.91 1.945-5.87.074-.232.18-.3.419-.299 1.712.012 3.422.006 5.134.006zM2.531 6.77l.809-2.43c.453-1.365.908-2.73 1.357-4.095.05-.152.1-.244.29-.243 1.793.007 3.588.005 5.382.005.052 0 .106.01.184.016-.033.118-.057.22-.09.32L8.403 6.55c-.047.144-.084.253-.282.252-1.803-.008-3.606-.004-5.41-.006-.05 0-.103-.014-.179-.024m8.112 11.026v-2.45h2.684v2.45zm-3.029 1.601c-.07-.708-.066-.713.584-.713h7.657c.543 0 .545.001.529.54-.001.053-.01.104-.018.173z" data-name="Layer_1"/></svg>