<svg xmlns="http://www.w3.org/2000/svg" viewBox="0 0 520.87 88.1"><g data-name="Layer_1"><rect width="240.3" height="88.1" x="280.57" rx="9.03" ry="9.03" style="fill:#ef4137"/><path d="M119.53 68.88V18.67c0-1.65 1.35-3.01 3.01-3.01s3.04 1.36 3.04 3.01v47.88h19.24c1.51 0 2.78 1.24 2.78 2.78s-1.28 2.78-2.78 2.78h-22.06c-2.06 0-3.23-1.16-3.23-3.23M49.9 42.87c0-18.12 11.3-29.16 29.84-29.16s29.87 11.05 29.87 29.16-11.35 29.24-29.87 29.24S49.9 61.02 49.9 42.87m29.84 23.68c14.73 0 23.75-9.06 23.75-23.68s-9.02-23.53-23.75-23.53-23.71 8.95-23.71 23.53 8.98 23.68 23.71 23.68M222.2 44.98c0-1.54 1.24-2.78 2.78-2.78h19.13c7.67 0 11.91-3.8 11.91-10.52s-4.24-10.52-11.91-10.52h-25.7c-1.54 0-2.78-1.28-2.78-2.82s1.24-2.78 2.78-2.78h25.7c11.57 0 18 5.79 18 16.2s-6.43 16.05-18 16.05h-5.94l17.51 19.65c.49.49.75 1.24.75 1.92 0 1.69-1.39 2.74-2.89 2.74-.9 0-1.84-.41-2.48-1.2l-20.29-23.11h-5.79c-1.54 0-2.78-1.28-2.78-2.82ZM4.47 70.65c-1.47-.3-2.63-1.43-2.63-2.93 0-1.95 1.62-3.08 3.53-2.75 4.55.98 9.02 1.47 13.64 1.47 10.48 0 15.6-3.27 15.6-10.14 0-5.3-5-9.25-15.11-12.07C6.31 40.51 0 35.13 0 27.8c0-9.55 7.1-14.09 21.98-14.09 4.47 0 8.57.41 12.67 1.2 1.5.19 2.71 1.32 2.71 2.82 0 1.88-1.39 3-3.42 2.74-3.91-.75-7.85-1.13-11.99-1.13-10.64 0-15.82 2.71-15.82 8.72 0 4.51 4.77 7.96 14.47 10.6 13.42 3.49 19.84 9.4 19.84 17.59 0 10.71-7.18 15.86-22.29 15.86-4.28 0-8.72-.49-13.68-1.47Zm200.14 1.46c-1.32 0-2.37-.79-2.82-1.92l-19.5-48.36-19.54 48.36a3.01 3.01 0 0 1-2.82 1.92c-1.65 0-2.97-1.36-2.97-3.01 0-.38.08-.79.19-1.09l20.44-50.13c.75-1.95 2.11-2.89 4.21-2.89h.94c2.1 0 3.46.94 4.21 2.89l20.44 50.13c.11.3.22.71.22 1.09a3.02 3.02 0 0 1-3.01 3.01Z" style="fill:#079649"/><path d="m489.14 69.37-12.93-14.96-12.1 14.81a7.73 7.73 0 0 1-6.01 2.89c-4.21 0-7.63-3.08-7.63-7.33 0-1.84.64-3.49 1.69-4.81l14.2-16.99-13.98-16.16c-1.09-1.28-1.65-2.9-1.65-4.62 0-4.1 3.35-7.44 7.4-7.44 2.41 0 4.44 1.16 5.86 2.82l36.42 42.77c1.01 1.2 1.58 2.82 1.58 4.47 0 3.99-3.27 7.25-7.22 7.25-2.29 0-4.25-1.13-5.64-2.71Zm-6.05-44.94 5.41-6.5a7.24 7.24 0 0 1 5.64-2.71c4.06 0 7.33 3.27 7.33 7.33 0 1.69-.56 3.2-1.5 4.47l-5.18 6.65c-1.39 1.8-3.53 2.89-5.94 2.89-4.1 0-7.4-3.31-7.4-7.44 0-1.77.64-3.46 1.65-4.7Zm-50.64 47.68c-3.27 0-6.01-2.03-7.03-4.93l-13.72-37.2-13.79 37.2c-1.05 2.86-3.79 4.93-7.03 4.93-4.1 0-7.48-3.34-7.48-7.44 0-.94.19-1.84.49-2.67l14.88-38.82c2.07-5.45 5.71-7.93 11.5-7.93h2.74c5.79 0 9.39 2.48 11.46 7.93L439.43 62c.3.82.45 1.73.45 2.67 0 4.1-3.31 7.44-7.44 7.44ZM294.17 22.73c0-4.17 3.38-7.52 7.52-7.52 2.25 0 4.25 1.05 5.67 2.56l24.47 27.06 24.46-27.06c1.43-1.5 3.42-2.56 5.67-2.56 4.13 0 7.52 3.35 7.52 7.52 0 1.92-.71 3.72-1.99 5.04l-29.84 32.4c-3.76 3.98-7.89 3.98-11.65 0l-29.88-32.4c-1.24-1.32-1.95-3.12-1.95-5.04m.04 26.2c0-4.25 3.46-7.7 7.74-7.7s7.71 3.46 7.71 7.7v15.48c0 4.24-3.46 7.7-7.71 7.7s-7.74-3.46-7.74-7.7zm59.79 0c0-4.25 3.46-7.7 7.71-7.7s7.7 3.46 7.7 7.7v15.48c0 4.24-3.42 7.7-7.7 7.7s-7.71-3.46-7.71-7.7z" style="fill:#fff"/></g></svg>