<svg xmlns="http://www.w3.org/2000/svg" viewBox="0 0 520.9 88.1"><rect width="240.3" height="88.1" x="280.6" rx="9" ry="9" style="fill:#ef4137"/><path d="M119.5 68.9V18.7c0-1.6 1.3-3 3-3s3 1.4 3 3v47.9h19.2c1.5 0 2.8 1.2 2.8 2.8s-1.3 2.8-2.8 2.8h-22.1c-2.1 0-3.2-1.2-3.2-3.2Zm-69.6-26c0-18.1 11.3-29.2 29.8-29.2s29.9 11 29.9 29.2-11.3 29.2-29.9 29.2S49.9 61 49.9 42.9m29.9 23.7c14.7 0 23.8-9.1 23.8-23.7s-9-23.5-23.8-23.5-23.7 8.9-23.7 23.5 9 23.7 23.7 23.7M222.2 45c0-1.5 1.2-2.8 2.8-2.8h19.1c7.7 0 11.9-3.8 11.9-10.5s-4.2-10.5-11.9-10.5h-25.7c-1.5 0-2.8-1.3-2.8-2.8s1.2-2.8 2.8-2.8h25.7c11.6 0 18 5.8 18 16.2s-6.4 16-18 16h-5.9l17.5 19.6c.5.5.8 1.2.8 1.9 0 1.7-1.4 2.7-2.9 2.7s-1.8-.4-2.5-1.2l-20.3-23.1H225c-1.5 0-2.8-1.3-2.8-2.8ZM4.5 70.7c-1.5-.3-2.6-1.4-2.6-2.9s1.6-3.1 3.5-2.8c4.6 1 9 1.5 13.6 1.5 10.5 0 15.6-3.3 15.6-10.1s-5-9.2-15.1-12.1C6.3 40.5 0 35.1 0 27.8s7.1-14.1 22-14.1 8.6.4 12.7 1.2c1.5.2 2.7 1.3 2.7 2.8s-1.4 3-3.4 2.7c-3.9-.8-7.9-1.1-12-1.1C11.4 19.3 6.2 22 6.2 28s4.8 8 14.5 10.6c13.4 3.5 19.8 9.4 19.8 17.6s-7.2 15.9-22.3 15.9-8.7-.5-13.7-1.5Zm200.1 1.4c-1.3 0-2.4-.8-2.8-1.9l-19.5-48.4-19.5 48.4c-.4 1.1-1.5 1.9-2.8 1.9s-3-1.4-3-3 0-.8.2-1.1l20.4-50.1c.8-1.9 2.1-2.9 4.2-2.9h.9c2.1 0 3.5.9 4.2 2.9L207.3 68c.1.3.2.7.2 1.1 0 1.7-1.4 3-3 3Zm284.6-2.7-12.9-15-12.1 14.8c-1.4 1.8-3.6 2.9-6 2.9-4.2 0-7.6-3.1-7.6-7.3s.6-3.5 1.7-4.8l14.2-17-14-16.2c-1.1-1.3-1.6-2.9-1.6-4.6 0-4.1 3.4-7.4 7.4-7.4s4.4 1.2 5.9 2.8l36.4 42.8c1 1.2 1.6 2.8 1.6 4.5 0 4-3.3 7.2-7.2 7.2s-4.2-1.1-5.6-2.7Zm-6.1-45 5.4-6.5c1.3-1.6 3.4-2.7 5.6-2.7 4.1 0 7.3 3.3 7.3 7.3s-.6 3.2-1.5 4.5l-5.2 6.6c-1.4 1.8-3.5 2.9-5.9 2.9-4.1 0-7.4-3.3-7.4-7.4s.6-3.5 1.6-4.7Zm-50.6 47.7c-3.3 0-6-2-7-4.9L411.8 30 398 67.2c-1 2.9-3.8 4.9-7 4.9s-7.5-3.3-7.5-7.4.2-1.8.5-2.7l14.9-38.8c2.1-5.5 5.7-7.9 11.5-7.9h2.7c5.8 0 9.4 2.5 11.5 7.9l15 38.8c.3.8.5 1.7.5 2.7 0 4.1-3.3 7.4-7.4 7.4ZM294.2 22.7c0-4.2 3.4-7.5 7.5-7.5s4.2 1 5.7 2.6l24.5 27.1 24.5-27.1c1.4-1.5 3.4-2.6 5.7-2.6 4.1 0 7.5 3.4 7.5 7.5s-.7 3.7-2 5l-29.8 32.4c-3.8 4-7.9 4-11.6 0l-29.9-32.4c-1.2-1.3-2-3.1-2-5Zm0 26.2c0-4.2 3.5-7.7 7.7-7.7s7.7 3.5 7.7 7.7v15.5c0 4.2-3.5 7.7-7.7 7.7s-7.7-3.5-7.7-7.7zm59.8 0c0-4.2 3.5-7.7 7.7-7.7s7.7 3.5 7.7 7.7v15.5c0 4.2-3.4 7.7-7.7 7.7s-7.7-3.5-7.7-7.7z" style="fill:#fff"/></svg>