<svg xmlns="http://www.w3.org/2000/svg" viewBox="0 0 185.97 85.28"><g data-name="Layer_1"><rect width="185.97" height="85.28" rx="5.79" ry="5.79" style="fill:#ed1c24"/><path d="M22.64 56.21v26.08C10.83 79.5 2.91 69.69 2.91 56.21zM32.78 1.82v18.5h-2.9c-3.12 0-6.47 1.34-6.47 5.35 0 11.82 33.33 5.46 33.33 32.77 0 15.05-11.15 24.75-26.86 24.75-1.34 0-2.68-.11-3.9-.22V64.02h3.9c3.01 0 7.02-.89 7.02-5.57 0-10.92-33.1-6.13-33.1-32.77 0-14.61 10.7-23.97 26.08-23.97 1 0 1.89 0 2.9.11m3.34 25.97V2.38c11.59 2.56 19.51 12.26 19.51 25.41zM66.77 3.16h19.84v56.4H66.77zm41.58 78.69H66.77V62.9h41.58zm8.35-78.69h19.73l13.15 33.77 9.47-23.41.11 42.69-3.12 9.81h-13.15zm0 78.69V11.74l19.73 47.48v22.63zm45.82-78.69h19.84v78.69h-19.73z" style="fill:#fff"/></g></svg>