<?xml version="1.0" encoding="UTF-8"?>
<svg id="Layer_2" xmlns="http://www.w3.org/2000/svg" viewBox="0 0 667.28 848.4">
  <g id="Layer_1-2" data-name="Layer_1">
    <path fill="black" d="M667.28,151.07V58.74c-.66-4.51-1.09-8.63-2.07-12.63C658.51,18.69,634.32.01,605.51,0c-93.82-.02-187.65.02-281.47.02-87.49,0-174.98-.05-262.48-.02C30.9.02,6.04,21.13,1.03,51.23c-.47,2.84-.66,5.74-1.03,9.1v28.9l.09,92.78v484.53h-.09v30.7h.1v59.63h-.1v31.45c.19,1.1.33,1.7.39,2.3,3.42,35.46,27.98,57.76,63.61,57.76,118.82,0,237.64,0,356.47,0,61.83,0,123.65.05,185.48-.02,30.41-.03,55.11-20.97,60.28-50.91.47-2.7.71-5.47,1.06-8.58V151.07ZM250.9,552.91c.82,1.8,1.65,3.58,2.65,5.75-8.64,4.74-17.07,9.35-25.47,13.96-36.49-57.48-8.61-153.43,75.07-175.15-5.6-19.25-11.2-38.48-17.19-59.06,2.31,1.62,3.51,2.36,4.59,3.24,28.21,22.86,56.39,45.75,84.63,68.57,3.72,3.01,6.34,6.33,5.68,11.43-.9,7.03-7.48,10.18-15.14,8.38-10.47-2.45-21.13-5.59-31.73-5.7-66.4-.66-110.57,68.07-83.09,128.57ZM364.13,632.66c5.67,19.45,11.25,38.59,17.22,59.05-2.22-1.54-3.38-2.25-4.43-3.1-28.35-22.97-56.69-45.95-85.02-68.95-5.61-4.55-7.06-9.72-4.28-14.81,2.81-5.16,8.1-6.6,15.22-4.14,62.34,21.53,125.45-25.72,121.67-91.11-.77-13.32-4.54-25.85-10.82-38.05,8.64-4.75,17.08-9.38,25.51-14.02,36.05,56.01,9.92,152.68-75.06,175.12ZM575.64,241.94H91.83V91.42h483.81v150.52Z"/>
  </g>
</svg>