<svg width="24" height="24" viewBox="0 0 24 24" fill="none" xmlns="http://www.w3.org/2000/svg">
  <path d="M5.22335 2.25232C4.72607 2.25232 4.24916 2.44986 3.89752 2.80149L2.59835 4.10067C1.13388 5.56514 1.13388 7.9395 2.59835 9.40397C3.93551 10.7411 6.03124 10.8574 7.50029 9.7527C8.12669 10.223 8.90598 10.5023 9.75 10.5023C10.5941 10.5023 11.3736 10.2229 12 9.75248C12.6264 10.2229 13.4059 10.5023 14.25 10.5023C15.094 10.5023 15.8733 10.223 16.4997 9.7527C17.9688 10.8574 20.0645 10.7411 21.4016 9.40397C22.8661 7.9395 22.8661 5.56514 21.4016 4.10067L20.1025 2.8015C19.7508 2.44987 19.2739 2.25232 18.7767 2.25232L5.22335 2.25232Z" fill="black"/>
  <path fill-rule="evenodd" clip-rule="evenodd" d="M3 20.2523V11.4974C4.42021 12.1709 6.0799 12.1704 7.50044 11.4967C8.18265 11.8206 8.94611 12.0023 9.75 12.0023C10.5541 12.0023 11.3177 11.8205 12 11.4965C12.6823 11.8205 13.4459 12.0023 14.25 12.0023C15.0539 12.0023 15.8173 11.8206 16.4996 11.4967C17.9201 12.1704 19.5798 12.1709 21 11.4974V20.2523H21.75C22.1642 20.2523 22.5 20.5881 22.5 21.0023C22.5 21.4165 22.1642 21.7523 21.75 21.7523H2.25C1.83579 21.7523 1.5 21.4165 1.5 21.0023C1.5 20.5881 1.83579 20.2523 2.25 20.2523H3ZM6 14.2523C6 13.8381 6.33579 13.5023 6.75 13.5023H9.75C10.1642 13.5023 10.5 13.8381 10.5 14.2523V17.2523C10.5 17.6665 10.1642 18.0023 9.75 18.0023H6.75C6.33579 18.0023 6 17.6665 6 17.2523V14.2523ZM14.25 13.5023C13.8358 13.5023 13.5 13.8381 13.5 14.2523V19.5023C13.5 19.9165 13.8358 20.2523 14.25 20.2523H17.25C17.6642 20.2523 18 19.9165 18 19.5023V14.2523C18 13.8381 17.6642 13.5023 17.25 13.5023H14.25Z" fill="black"/>
</svg>