<?xml version="1.0" encoding="UTF-8"?>
<svg id="Layer_2" data-name="Layer 2" xmlns="http://www.w3.org/2000/svg" viewBox="0 0 96.95 96.95">
  <defs>
    <style>
      .cls-1 {
        fill: #454547;
      }

      .cls-2 {
        fill: #fff;
      }
    </style>
  </defs>
  <g id="Layer_1-2" data-name="Layer 1">
    <g>
      <rect class="cls-2" width="96.95" height="96.95" rx="9.77" ry="9.77"/>
      <g>
        <path class="cls-1" d="M77.79,72.55v5.54c0,.56-1.5,1.33-2.05.89l-7.74-6.42h-27.11c-2.59-.39-4.61-2.73-4.84-5.3-.9-9.89.7-21.12,0-31.15.2-2.27,1.8-4.3,3.97-4.99,15-.7,30.16-.09,45.22-.31,2.89.19,5.24,2.43,5.53,5.32.99,9.87-.74,21.33,0,31.36.1,1.7-2.81,5.07-4.36,5.07h-8.61ZM62.88,39.82c-2.87.5-2.32,5.39,1.07,4.62,2.5-.56,2.06-5.16-1.07-4.62ZM65.29,61l-.1-12.75c-.45-1.38-5.02-1.39-5.46,0-.49,1.54,1.2,2.29,2.5,2.13v10.61c-2.4-.72-3.54,2.63-1.29,3.06.74.14,5.12.1,5.78-.1,2.11-.66.73-3.63-1.43-2.96Z"/>
        <path class="cls-1" d="M60.58,27.75h-19.69c-3.23,0-7.9,4.38-7.9,7.66v24.41h-4.6c-.69,0-6.53,6.21-8.01,6.38-.51.11-1.54-.64-1.54-1.08v-5.31c-4.79-.16-11.28,1.29-12.86-4.71l-.11-31.96c.47-3.13,2.63-5.04,5.77-5.31h43.4c2.21-.09,5.54,2.65,5.54,4.84v5.07Z"/>
      </g>
    </g>
  </g>
</svg>