<?xml version="1.0" encoding="UTF-8"?>
<svg id="Layer_2" data-name="Layer 2" xmlns="http://www.w3.org/2000/svg" viewBox="0 0 96.95 96.95">
  <defs>
    <style>
      .cls-1 {
        fill: #454547;
      }

      .cls-2 {
        fill: #fff;
      }
    </style>
  </defs>
  <g id="Layer_1-2" data-name="Layer 1">
    <g>
      <rect class="cls-2" width="96.95" height="96.95" rx="9.77" ry="9.77"/>
      <g>
        <path class="cls-1" d="M48.4,27.24c-3.71-.37-6.63-3.18-8.03-6.48-.97-2.3-1.66-3.82,1.49-4.05,4.7-.34,11.17.99,11.57,6.7,2.16-2,5.87-2.31,8.67-1.89,2.97.44,3.53.86,2.31,3.71-1.78,4.17-6.17,7.18-10.82,6v3.35h18.26s.45.36.56.44l14.16,28.38c.54,1.59-1.09,1.99-2.36,1.79v16.58c.98-.01,2.34-.23,2.54,1.05.12.8.14,4.98-.02,5.7-.13.59-.72.96-1.31.92l-74.15-.02c-.77-.16-.99-.61-1.05-1.34-.1-1.14-.15-4.19.02-5.26.06-.36.53-1.05.87-1.05h5.5v-16.58h-5.5c-.36,0-1.04-.92-.89-1.35l15.5-28.69c.09-.16.78-.58.86-.58h24.48v-7.34c-.85-.06-1.8.08-2.63,0ZM83.4,62.65l-12.84-25.51H29.03l13.71,25.51h40.66ZM19.14,64.16v17.62h3.83v-14.43c0-.25.71-.91,1.05-.87,2.52.16,5.34-.24,7.81-.02.46.04,1.35.36,1.35.88v14.43h7.65v-16.58h-5.5c-.15,0-.69-.47-.75-.69l-7.62-15.42-.35.2-7.46,14.86ZM81.65,65.2h-38.27v16.58h38.27v-16.58ZM30.62,69.02h-5.1v12.76h5.1v-12.76Z"/>
        <path class="cls-1" d="M22.13,20.59c6.98-1.01,8.03,9.37,1.54,10.15-6.81.81-7.88-9.23-1.54-10.15Z"/>
        <path class="cls-1" d="M22.6,12.92c.55-.12,1.17.03,1.46.54.25.45.27,3.04.14,3.62-.28,1.25-2.29,1.25-2.51-.13-.15-.99-.32-3.76.9-4.03Z"/>
        <path class="cls-1" d="M11.12,24.41c.5-.11,2.94-.11,3.4.04,1.14.36,1.07,2.26-.26,2.47-.54.08-2.8.09-3.27-.06-1.11-.35-1.05-2.18.12-2.45Z"/>
        <path class="cls-1" d="M31.53,24.41c.5-.11,2.94-.11,3.4.04,1.14.36,1.07,2.26-.26,2.47-.54.08-2.8.09-3.27-.06-1.11-.35-1.05-2.18.12-2.45Z"/>
        <path class="cls-1" d="M13.76,16.76c.3-.3.99-.43,1.4-.3.28.09,2.47,1.94,2.58,2.2.47,1.15-.44,2.19-1.64,1.8-.14-.05-2.04-1.59-2.21-1.78-.49-.55-.69-1.37-.13-1.94Z"/>
        <path class="cls-1" d="M31.85,16.45c.3.3.43.99.3,1.4-.09.28-1.94,2.47-2.2,2.58-1.11.46-2.17-.49-1.8-1.64.05-.15,1.58-2.04,1.78-2.21.55-.49,1.37-.69,1.94-.13Z"/>
        <path class="cls-1" d="M50.67,67.78c2.55.11,5.44-.27,7.95-.04.52.05,1,.15,1.23.69.21.5.21,5.01.12,5.78-.1.86-.54,1.13-1.35,1.2-1.78.16-5.92.2-7.67,0-.46-.05-.88-.24-1.07-.68-.21-.5-.21-5.01-.12-5.78.07-.59.33-.98.91-1.16ZM57.41,70.3h-5.1v2.55h5.1v-2.55Z"/>
        <path class="cls-1" d="M65.98,67.78c2.55.11,5.44-.27,7.95-.04.52.05,1,.15,1.23.69.21.5.21,5.01.12,5.78-.1.86-.54,1.13-1.35,1.2-1.78.16-5.92.2-7.67,0-.46-.05-.88-.24-1.07-.68-.21-.5-.21-5.01-.12-5.78.07-.59.33-.98.91-1.16ZM72.72,70.3h-5.1v2.55h5.1v-2.55Z"/>
        <path class="cls-1" d="M37.91,39.72l29.03.09.55.57,9.07,18.37c.02.53-.22.98-.69,1.23h-29.26s-.55-.57-.55-.57l-8.98-17.97c-.26-.74.08-1.5.84-1.72ZM47.2,42.23h-6.86l3.27,6.38h6.3l-2.71-6.38ZM59.8,48.61l-3.27-6.38h-6.62l2.87,6.38h7.02ZM68.73,48.61l-3.27-6.38h-5.98l3.27,6.38h5.98ZM54.06,57.54l-2.95-6.38h-6.3l3.27,6.38h5.98ZM64.27,57.54l-3.27-6.38h-6.94l2.95,6.38h7.26ZM73.2,57.54l-3.27-6.38h-5.98l3.27,6.38h5.98Z"/>
      </g>
    </g>
  </g>
</svg>