<svg width="24" height="24" viewBox="0 0 24 24" fill="none" xmlns="http://www.w3.org/2000/svg">
  <path fill-rule="evenodd" clip-rule="evenodd" d="M7.5 5.25232C7.5 3.59546 8.84315 2.25232 10.5 2.25232H13.5C15.1569 2.25232 16.5 3.59547 16.5 5.25232V5.4573C17.4325 5.54266 18.3574 5.65428 19.274 5.79144C20.7281 6.009 21.75 7.27395 21.75 8.70801V11.7412C21.75 12.9524 21.0164 14.0936 19.8137 14.4934C17.3566 15.3103 14.7292 15.7523 12 15.7523C9.27087 15.7523 6.64342 15.3103 4.18627 14.4934C2.98364 14.0935 2.25 12.9523 2.25 11.7412V8.70801C2.25 7.27395 3.27191 6.009 4.72596 5.79144C5.6426 5.65428 6.56753 5.54266 7.5 5.4573V5.25232ZM15 5.25232V5.34314C14.0077 5.28288 13.0074 5.25232 12 5.25232C10.9927 5.25232 9.99235 5.28288 9 5.34314V5.25232C9 4.42389 9.67157 3.75232 10.5 3.75232H13.5C14.3284 3.75232 15 4.42389 15 5.25232ZM12 13.5023C12.4142 13.5023 12.75 13.1665 12.75 12.7523C12.75 12.3381 12.4142 12.0023 12 12.0023C11.5858 12.0023 11.25 12.3381 11.25 12.7523C11.25 13.1665 11.5858 13.5023 12 13.5023Z" fill="black"/>
  <path d="M3 18.4023V15.6062C3.22304 15.7286 3.46097 15.833 3.71303 15.9168C6.32087 16.7838 9.10801 17.2523 12 17.2523C14.892 17.2523 17.6791 16.7838 20.287 15.9168C20.539 15.833 20.777 15.7286 21 15.6063V18.4023C21 19.8542 19.9528 21.1298 18.4769 21.3258C16.3575 21.6071 14.1955 21.7523 12 21.7523C9.80447 21.7523 7.64246 21.6071 5.52314 21.3258C4.04724 21.1298 3 19.8542 3 18.4023Z" fill="black"/>
</svg>