<?xml version="1.0" encoding="UTF-8"?>
<svg id="Layer_2" data-name="Layer 2" xmlns="http://www.w3.org/2000/svg" viewBox="0 0 96.95 96.95">
  <defs>
    <style>
      .cls-1 {
        fill: #454547;
      }

      .cls-2 {
        fill: #fff;
      }
    </style>
  </defs>
  <g id="Layer_1-2" data-name="Layer 1">
    <g>
      <rect class="cls-2" width="96.95" height="96.95" rx="9.77" ry="9.77"/>
      <g>
        <path class="cls-1" d="M74.57,49.55l13.61.05.59.59-.04,24.82c-.3.58-.71.67-1.31.73-3.99.36-8.51-.29-12.56,0l-1-.69-.1-24.28c-.02-.58.2-1.09.81-1.22ZM85.64,52.22h-5.93l-2.2,11h2.46l.19.35c-.34,2.37-1.39,5.03-1.61,7.37-.02.25-.18.65.23.57l6.7-10.32h-3.05l3.22-8.97Z"/>
        <path class="cls-1" d="M82.59,78.61v4.65c0,.96-1.9,2.71-2.97,2.62h-24.93s-1.31.89-1.31.89l-33.09.12c-2.36-.62-2.18-4.09.33-4.39h32.05c.66.05,1.18.47,1.61.93l25.38-.04c.13-.05.55-.4.55-.46v-4.31h2.37Z"/>
        <path class="cls-1" d="M35.59,17.92c8.69-1.19,9.66,11.58,1.63,12.28-8.04.7-9.15-11.26-1.63-12.28Z"/>
        <rect class="cls-1" x="8.17" y="73.54" width="56.96" height="1.69"/>
        <path class="cls-1" d="M35.47,66.26v4.91h-7.46c-.01-1.63.13-3.28.34-4.91h7.12Z"/>
        <polygon class="cls-1" points="54.45 66.26 55.13 71.17 47.67 71.17 47.33 66.26 54.45 66.26"/>
        <path class="cls-1" d="M18.01,71.17l.71-4.62.23-.28h6.78l.22.38c-.33,1.23-.09,2.9-.31,4.1-.03.19-.09.32-.25.42h-7.37Z"/>
        <polygon class="cls-1" points="44.96 66.26 45.3 71.17 37.84 71.17 37.84 66.26 44.96 66.26"/>
        <polygon class="cls-1" points="16.31 66.26 15.63 71.17 8.51 71.17 9.53 66.26 16.31 66.26"/>
        <path class="cls-1" d="M64.79,71.17h-7.03l-.23-.28c.05-1.33-.65-3.03-.64-4.28,0-.2.01-.22.19-.35h6.44c.7,1.48.87,3.3,1.27,4.91Z"/>
        <polygon class="cls-1" points="35.47 59.83 35.47 63.89 28.52 63.89 28.85 59.83 35.47 59.83"/>
        <polygon class="cls-1" points="54.11 63.89 47.16 63.89 46.82 59.83 53.35 59.83 53.57 60.12 54.11 63.89"/>
        <polygon class="cls-1" points="44.45 59.83 44.79 63.89 37.84 63.89 37.84 59.83 44.45 59.83"/>
        <polygon class="cls-1" points="26.31 59.83 26.14 63.89 19.19 63.89 19.7 59.83 26.31 59.83"/>
        <path class="cls-1" d="M17.33,59.83l-.51,4.06h-6.78c.53-1.3.51-2.83,1.1-4.06h6.19Z"/>
        <polygon class="cls-1" points="62.25 59.83 63.1 63.89 56.48 63.89 55.98 59.83 62.25 59.83"/>
        <path class="cls-1" d="M75.86,45.51c.26-.21.56-.2.88-.23,2.93-.25,6.2.21,9.17,0,1.36.18,1.52,2.12-.19,2.36s-7.01.22-8.8.02c-1.22-.14-2.06-1.34-1.05-2.15Z"/>
        <polygon class="cls-1" points="35.47 54.08 35.47 57.47 29.02 57.47 29.19 54.08 35.47 54.08"/>
        <polygon class="cls-1" points="26.82 54.08 26.65 57.47 20.21 57.47 20.58 54.37 20.8 54.08 26.82 54.08"/>
        <polygon class="cls-1" points="44.11 54.08 44.28 57.47 37.84 57.47 37.84 54.08 44.11 54.08"/>
        <polygon class="cls-1" points="52.59 54.08 53.09 57.47 46.65 57.47 46.48 54.08 52.59 54.08"/>
        <path class="cls-1" d="M32.58,80.14v-2.54h7.88c.42.56.41,1.99,0,2.54h-7.88Z"/>
        <path class="cls-1" d="M61.74,57.47h-6.27l-.51-3.38h5.85c.51.99.54,2.3.93,3.38Z"/>
        <polygon class="cls-1" points="18.17 54.08 17.8 57.18 17.58 57.47 11.56 57.47 12.24 54.08 18.17 54.08"/>
        <path class="cls-1" d="M35.47,48.84v2.88h-6.1c.35-.93-.12-2.11.42-2.88h5.68Z"/>
        <path class="cls-1" d="M52.25,51.71h-5.85c-.5-.75-.14-1.95-.42-2.88h5.68l.59,2.88Z"/>
        <polygon class="cls-1" points="27.33 48.84 26.99 51.71 21.06 51.71 21.4 48.84 27.33 48.84"/>
        <polygon class="cls-1" points="43.6 48.84 43.77 51.71 37.84 51.71 37.84 48.84 43.6 48.84"/>
        <polygon class="cls-1" points="19.02 48.84 18.68 51.71 12.92 51.71 13.43 48.84 19.02 48.84"/>
        <path class="cls-1" d="M60.38,51.71h-5.76l-.34-2.88h5.34c.42.82.55,1.94.76,2.88Z"/>
        <polygon class="cls-1" points="35.47 43.93 35.47 46.47 29.87 46.47 30.04 43.93 35.47 43.93"/>
        <polygon class="cls-1" points="51.06 43.93 51.4 46.47 45.81 46.47 45.64 43.93 51.06 43.93"/>
        <polygon class="cls-1" points="43.26 43.93 43.43 46.47 37.84 46.47 37.84 43.93 43.26 43.93"/>
        <path class="cls-1" d="M27.67,43.93c-.31.82.08,1.88-.42,2.54h-5.34l.34-2.54h5.42Z"/>
        <path class="cls-1" d="M58.69,43.93l.51,2.54h-5.17c-.51-.68-.32-1.72-.59-2.54h5.25Z"/>
        <polygon class="cls-1" points="19.7 43.93 19.5 46.19 19.28 46.47 14.11 46.47 14.62 43.93 19.7 43.93"/>
        <path class="cls-1" d="M27.11,13.85c.46-.14.84-.01,1.23.23.42.26,2.77,2.69,2.86,3.07.24,1.08-.74,1.89-1.72,1.38-.4-.21-3.07-2.96-3.13-3.32-.09-.47.3-1.23.77-1.37Z"/>
        <path class="cls-1" d="M42.88,29.41c.21-.04.38-.05.6,0,.37.08,2.9,2.51,3.18,2.93.79,1.19-.34,2.41-1.59,1.76-.25-.13-2.55-2.41-2.73-2.69-.44-.7-.38-1.8.54-1.99Z"/>
        <path class="cls-1" d="M29.83,29.41c1.05-.19,1.72.91,1.21,1.9-.13.24-2.55,2.66-2.8,2.79-1.2.63-2.33-.49-1.66-1.65.23-.4,2.89-2.97,3.25-3.03Z"/>
        <path class="cls-1" d="M35.85,37.79c-.19-.15-.36-.62-.4-.87-.09-.73-.09-3.01.02-3.72.23-1.47,2.14-1.33,2.36-.17.11.61.09,3.41,0,4.05-.15.93-1.3,1.26-1.97.72Z"/>
        <path class="cls-1" d="M45,23.17c.47-.5,3.84-.49,4.61-.37,1.41.22,1.35,2.13.18,2.35-.55.1-3.68.1-4.23,0-.84-.16-1.04-1.47-.55-1.98Z"/>
        <path class="cls-1" d="M37.46,10.31c.53.5.48,3.79.34,4.57-.27,1.52-2.12,1.33-2.33.21-.1-.54-.1-3.68,0-4.22.16-.83,1.47-1.03,1.99-.55Z"/>
        <path class="cls-1" d="M23.38,22.99c.46-.11,4.11-.12,4.51,0,.73.22.82,1.51.21,2s-3.98.45-4.75.16c-1.06-.4-1.03-1.92.03-2.16Z"/>
        <path class="cls-1" d="M45.25,13.85c1.13-.34,1.95.57,1.49,1.65-.08.19-2.61,2.7-2.88,2.88-1.08.72-2.26-.37-1.74-1.4.15-.3,2.92-3.07,3.13-3.14Z"/>
      </g>
    </g>
  </g>
</svg>