<?xml version="1.0" encoding="UTF-8"?>
<svg id="Layer_2" xmlns="http://www.w3.org/2000/svg" viewBox="0 0 24 24">
  <g id="Layer_1-2" data-name="Layer_1" transform="scale(0.1167)">
    <path fill="black" d="M68.75,65.88c-5.27,15.87-10.44,31.44-15.61,47.02-1.05,3.16-2.02,6.35-3.2,9.47-.25.66-1.21,1.48-1.84,1.49-15.75.08-31.5.06-47.25.04-.22,0-.44-.12-.85-.23.24-.83.43-1.63.69-2.41,5.9-17.79,11.81-35.58,17.71-53.38.4-1.2.64-2.21,2.39-2.21,15.52.07,31.03.04,46.55.05.37,0,.74.08,1.4.16Z"/>
    <path fill="black" d="M57.39,123.76c2.9-8.75,5.71-17.19,8.52-25.64,3.37-10.15,6.76-20.3,10.11-30.46.39-1.18.69-2.01,2.29-2,15.45.07,30.9.04,46.35.05.44,0,.87.1,1.49.18-.22.83-.36,1.49-.57,2.13-5.95,17.95-11.92,35.9-17.85,53.86-.42,1.28-.86,2.08-2.5,2.07-15.37-.07-30.74-.04-46.11-.05-.46,0-.91-.08-1.71-.15Z"/>
    <path fill="black" d="M114.98,123.71c.61-1.89,1.17-3.65,1.75-5.4,5.59-16.83,11.18-33.66,16.75-50.5.41-1.25.75-2.14,2.44-2.14,15.52.07,31.04.04,46.56.05.31,0,.61.06,1.28.13-.24.79-.43,1.48-.66,2.16-5.96,17.94-11.92,35.87-17.86,53.81-.41,1.23-.7,2.16-2.4,2.15-15.44-.07-30.88-.04-46.32-.05-.44,0-.89-.11-1.53-.2Z"/>
    <path fill="black" d="M205.6.24c-3.3,9.95-6.48,19.51-9.65,29.07-2.98,8.98-5.96,17.95-8.92,26.93-.38,1.14-.67,2.05-2.28,2.05-15.6-.06-31.21-.04-46.81-.05-.3,0-.6-.09-1.06-.16.18-.73.3-1.38.51-2.01,5.98-18.02,11.99-36.03,17.94-54.07.46-1.38,1.01-1.98,2.56-1.97,15.22.06,30.43.03,45.65.04.6,0,1.2.1,2.06.18Z"/>
    <path fill="black" d="M148.14.05c-2.64,7.93-5.13,15.41-7.62,22.9-3.69,11.1-7.38,22.2-11.04,33.31-.39,1.18-.71,2.03-2.29,2.03-15.44-.06-30.89-.03-46.33-.05-.45,0-.9-.12-1.57-.22.57-1.8,1.07-3.49,1.63-5.16,5.57-16.76,11.17-33.51,16.66-50.3C98.22.57,99.12-.01,101.17,0c14.67.1,29.33.05,44,.05h2.97Z"/>
    <path fill="black" d="M21.69,58.02c2.34-7.03,4.63-13.93,6.92-20.84,3.88-11.7,7.78-23.39,11.63-35.09.43-1.3.85-2.09,2.48-2.08,15.37.06,30.75.04,46.12.04.45,0,.91.08,1.58.14-.28,1.01-.49,1.89-.77,2.74-5.88,17.73-11.78,35.46-17.65,53.19-.41,1.23-.72,2.17-2.42,2.16-15.45-.07-30.9-.04-46.35-.05-.44,0-.89-.12-1.54-.21Z"/>
    <path fill="black" d="M91.21,152.51v-20.99h23v20.99h-23Z"/>
    <path fill="black" d="M65.25,166.23c-.6-6.07-.56-6.11,5.01-6.11,21.87,0,43.74,0,65.61,0,4.65,0,4.67.01,4.53,4.63-.01.45-.09.89-.15,1.48h-75Z"/>
  </g>
</svg>