<?xml version="1.0" encoding="UTF-8"?>
<svg id="Layer_2" data-name="Layer 2" xmlns="http://www.w3.org/2000/svg" viewBox="0 0 96.95 96.95">
  <defs>
    <style>
      .cls-1 {
        fill: #454547;
      }

      .cls-2 {
        fill: #fff;
      }
    </style>
  </defs>
  <g id="Layer_1-2" data-name="Layer 1">
    <g>
      <rect class="cls-2" width="96.95" height="96.95" rx="9.77" ry="9.77"/>
      <g>
        <path class="cls-1" d="M10.13,16.27c.43-1,1.16-1.79,2.33-1.82,21.17.06,42.36-.09,63.52.07.66.05,1.8,1.22,1.8,1.82v2.95c2.37.25,5.46-.35,7.74.04,1,.17,1.84,1.13,1.92,2.15v58.9c-.33,2.69-2.02,5.02-4.53,6.04l-1.66.53H16.32c-3.22-.68-5.52-2.97-6.19-6.19V16.27ZM72.96,19.29H14.96v60.94c0,.56,1.07,1.71,1.69,1.78l64.17.04c.66-.05,1.8-1.22,1.8-1.82V24.12h-4.83v43.5h-4.83V19.29Z"/>
        <path class="cls-1" d="M21.72,53.16l25.38.07c1.04.34,1.6,1.15,1.7,2.23.55,6.21-.43,13.2,0,19.5-.02,1.25-1.08,2.32-2.34,2.34l-24.97-.11c-.92-.29-1.6-1.11-1.69-2.09v-19.79c.1-1.07.89-1.93,1.92-2.15ZM43.96,57.95h-19.33v14.5h19.33v-14.5Z"/>
        <rect class="cls-1" x="19.79" y="24.12" width="48.33" height="4.83"/>
        <rect class="cls-1" x="19.79" y="33.79" width="48.33" height="4.83"/>
        <rect class="cls-1" x="19.79" y="43.46" width="48.33" height="4.83"/>
        <rect class="cls-1" x="53.62" y="53.12" width="14.5" height="4.83"/>
        <rect class="cls-1" x="53.62" y="62.79" width="14.5" height="4.83"/>
        <rect class="cls-1" x="53.62" y="72.45" width="14.5" height="4.83"/>
        <rect class="cls-1" x="72.96" y="72.45" width="4.83" height="4.83"/>
      </g>
    </g>
  </g>
</svg>