<svg width="24" height="24" viewBox="0 0 24 24" fill="none" xmlns="http://www.w3.org/2000/svg">
  <path fill-rule="evenodd" clip-rule="evenodd" d="M12 2.25464C6.61522 2.25464 2.25 6.61986 2.25 12.0046C2.25 17.3894 6.61522 21.7546 12 21.7546C17.3848 21.7546 21.75 17.3894 21.75 12.0046C21.75 6.61986 17.3848 2.25464 12 2.25464ZM9.375 8.25464C8.83433 8.25464 8.54674 8.67345 8.43901 8.8889C8.30886 9.14921 8.25 9.45634 8.25 9.75464C8.25 10.0529 8.30886 10.3601 8.43901 10.6204C8.54674 10.8358 8.83433 11.2546 9.375 11.2546C9.91567 11.2546 10.2033 10.8358 10.311 10.6204C10.4411 10.3601 10.5 10.0529 10.5 9.75464C10.5 9.45634 10.4411 9.14921 10.311 8.8889C10.2033 8.67345 9.91567 8.25464 9.375 8.25464ZM13.689 8.8889C13.7967 8.67345 14.0843 8.25464 14.625 8.25464C15.1657 8.25464 15.4533 8.67345 15.561 8.8889C15.6911 9.14921 15.75 9.45634 15.75 9.75464C15.75 10.0529 15.6911 10.3601 15.561 10.6204C15.4533 10.8358 15.1657 11.2546 14.625 11.2546C14.0843 11.2546 13.7967 10.8358 13.689 10.6204C13.5589 10.3601 13.5 10.0529 13.5 9.75464C13.5 9.45634 13.5589 9.14921 13.689 8.8889ZM15.7123 15.717C16.0052 15.4241 16.0052 14.9492 15.7123 14.6563C15.4194 14.3634 14.9445 14.3634 14.6517 14.6563C13.1872 16.1208 10.8128 16.1208 9.34835 14.6563C9.05546 14.3634 8.58058 14.3634 8.28769 14.6563C7.9948 14.9492 7.9948 15.4241 8.28769 15.717C10.3379 17.7672 13.6621 17.7672 15.7123 15.717Z" fill="black"/>
</svg>