<svg width="24" height="24" viewBox="0 0 24 24" fill="none" xmlns="http://www.w3.org/2000/svg">
  <path fill-rule="evenodd" clip-rule="evenodd" d="M14.6152 1.59725C14.9165 1.76519 15.0643 2.11692 14.9736 2.44966L12.982 9.75232H20.25C20.5487 9.75232 20.8189 9.92951 20.9379 10.2034C21.0569 10.4773 21.0021 10.7957 20.7983 11.0141L10.2983 22.2641C10.063 22.5162 9.68604 22.5753 9.38481 22.4074C9.08357 22.2395 8.9357 21.8877 9.02644 21.555L11.0181 14.2523H3.75002C3.45137 14.2523 3.18118 14.0751 3.06216 13.8012C2.94313 13.5273 2.99795 13.2089 3.20173 12.9906L13.7017 1.74058C13.937 1.48845 14.314 1.42931 14.6152 1.59725Z" fill="black"/>
</svg>