<svg width="24" height="24" viewBox="0 0 24 24" fill="none" xmlns="http://www.w3.org/2000/svg">
  <path fill-rule="evenodd" clip-rule="evenodd" d="M1.5 5.62964C1.5 4.5941 2.33947 3.75464 3.375 3.75464H20.625C21.6605 3.75464 22.5 4.59411 22.5 5.62964V18.3796C22.5 19.4152 21.6605 20.2546 20.625 20.2546H3.375C2.33947 20.2546 1.5 19.4152 1.5 18.3796V5.62964ZM3 5.62964V7.12964C3 7.33675 3.16789 7.50464 3.375 7.50464H4.875C5.08211 7.50464 5.25 7.33675 5.25 7.12964V5.62964C5.25 5.42253 5.08211 5.25464 4.875 5.25464H3.375C3.16789 5.25464 3 5.42253 3 5.62964ZM19.125 5.25464C18.9179 5.25464 18.75 5.42253 18.75 5.62964V7.12964C18.75 7.33675 18.9179 7.50464 19.125 7.50464H20.625C20.8321 7.50464 21 7.33675 21 7.12964V5.62964C21 5.42253 20.8321 5.25464 20.625 5.25464H19.125ZM21 9.37964C21 9.17253 20.8321 9.00464 20.625 9.00464H19.125C18.9179 9.00464 18.75 9.17253 18.75 9.37964V10.8796C18.75 11.0867 18.9179 11.2546 19.125 11.2546H20.625C20.8321 11.2546 21 11.0867 21 10.8796V9.37964ZM21 13.1296C21 12.9225 20.8321 12.7546 20.625 12.7546H19.125C18.9179 12.7546 18.75 12.9225 18.75 13.1296V14.6296C18.75 14.8367 18.9179 15.0046 19.125 15.0046H20.625C20.8321 15.0046 21 14.8367 21 14.6296V13.1296ZM21 16.8796C21 16.6725 20.8321 16.5046 20.625 16.5046H19.125C18.9179 16.5046 18.75 16.6725 18.75 16.8796V18.3796C18.75 18.5867 18.9179 18.7546 19.125 18.7546H20.625C20.8321 18.7546 21 18.5867 21 18.3796V16.8796ZM4.875 18.7546C5.08211 18.7546 5.25 18.5867 5.25 18.3796V16.8796C5.25 16.6725 5.08211 16.5046 4.875 16.5046H3.375C3.16789 16.5046 3 16.6725 3 16.8796V18.3796C3 18.5867 3.16789 18.7546 3.375 18.7546H4.875ZM3.375 15.0046H4.875C5.08211 15.0046 5.25 14.8367 5.25 14.6296V13.1296C5.25 12.9225 5.08211 12.7546 4.875 12.7546H3.375C3.16789 12.7546 3 12.9225 3 13.1296V14.6296C3 14.8367 3.16789 15.0046 3.375 15.0046ZM3.375 11.2546H4.875C5.08211 11.2546 5.25 11.0867 5.25 10.8796V9.37964C5.25 9.17253 5.08211 9.00464 4.875 9.00464H3.375C3.16789 9.00464 3 9.17253 3 9.37964V10.8796C3 11.0867 3.16789 11.2546 3.375 11.2546ZM7.5 11.2546C7.08579 11.2546 6.75 11.5904 6.75 12.0046C6.75 12.4189 7.08579 12.7546 7.5 12.7546H16.5C16.9142 12.7546 17.25 12.4189 17.25 12.0046C17.25 11.5904 16.9142 11.2546 16.5 11.2546H7.5Z" fill="black"/>
</svg>