<?xml version="1.0" encoding="UTF-8"?>
<svg id="Layer_2" data-name="Layer 2" xmlns="http://www.w3.org/2000/svg" viewBox="0 0 96.95 96.95">
  <defs>
    <style>
      .cls-1 {
        fill: none;
      }

      .cls-2 {
        fill: #454545;
      }
    </style>
  </defs>
  <g id="Layer_1-2" data-name="Layer 1">
    <g>
      <rect class="cls-1" width="96.95" height="96.95" rx="9.77" ry="9.77"/>
      <path class="cls-2" d="M32.83,54.84h19.92c3.75-2.66,25.68-27.35,27.57-26.97.43.09,1.41,1.29.63,1.84l-25.38,25.55c-.28.76.13,1.17.51,1.74,2.16,3.21,7.66,6.76,10.15,10.07.89,0,10.48-11.04,12.54-12.58.69-.52,1.11-1.13,2.16-.89.73.67,1.19.77.64,1.85-1.69,3.28-9.89,8.42-11.96,12.25h11.65c.12,0,.12,2.45,0,2.45h-15.63c-.87,0-10.23-11.15-12.23-12.29-3.36-1.93-18.44.15-23.2-.45-.81.24-11.8,11.13-12.01,11.95-.4,1.55,1.31,3.12,2.98,2.35,2.42-1.12,8.56-9.94,10.86-10.62,1.43-.42,17.07-.45,18.86-.11,2.45.47,12.56,12.86,13.5,12.86h11.95c.09,1.07.14,2-1.02,2.36-1.06.33-10.31.3-11.42-.03-2.41-.71-9.5-10.53-12.35-12.17-.73-.42-1-.5-1.84-.61-2.15-.29-15.47-.32-17.07.16-2.32.69-9.83,10.92-11.89,11.46-1.67.44-4.43-3.42-5.63-4.66l49.27-49.83.63,1.84-32.19,32.48Z"/>
    </g>
  </g>
</svg>