<?xml version="1.0" encoding="UTF-8"?>
<svg id="Layer_2" xmlns="http://www.w3.org/2000/svg" viewBox="0 0 660.82 659.74">
  <g id="Layer_1-2" data-name="Layer_1">
    <path fill="currentColor" d="M660.82,329.29c-.06,179.15-142.53,323.06-316.62,330.16C159.54,666.98,7.93,522.41.31,344.46-7.63,159.01,138.35,6.84,318.03.23c185.19-6.81,341.91,141.14,342.79,329.07ZM309.26,348.16c.4-.52.59-.65.59-.79.1-22.44.24-44.88.13-67.32,0-1.05-2.07-2.87-3.34-3.02-13.28-1.59-26.63-2.11-39.76.87-49.52,11.25-83.87,40.49-98.46,89.13-14.67,48.92-4.28,93.08,33.17,129.39,29.54,28.64,65.08,40.42,105.9,36.22,63.46-6.52,113.82-62.34,113.87-126.04.03-45.75,0-91.5,0-137.26v-6.1c23.83,16.28,48.85,26.2,76.63,29.49v-85.1c-1.84-.17-3.31-.33-4.78-.43-19.33-1.42-36.9-6.98-52.45-19.29-18.72-14.84-31.61-33.11-36.95-56.4-1-4.37-3.01-5.51-7.2-5.43-12.99.23-25.99.08-38.99.08q-7.42,0-7.43,7.41c0,90.51.01,181.01,0,271.52,0,24.86-16.71,47.36-41.18,54.76-27.19,8.22-50.97-2.82-65.15-22.05-14.82-20.11-14.99-42.66-1.9-63.74,13.02-20.97,32.83-30.38,57.85-27.44,3.24.38,6.46,1.05,9.45,1.55Z"/>
  </g>
</svg>