<?xml version="1.0" encoding="UTF-8"?>
<svg id="Layer_1" xmlns="http://www.w3.org/2000/svg" viewBox="0 0 498.12 472.17">
  <defs>
    <style>
      .cls-1 {
        fill: #0071b0;
      }

      .cls-2 {
        fill: #017fc5;
      }

      .cls-3 {
        fill: #fefefe;
      }
    </style>
  </defs>
  <path class="cls-2" d="M63.12,471.59c-6.96,0-13.68-1.35-20.16-3.82-17.14-6.53-29.25-18.39-36.7-35.06-3.12-6.99-4.65-14.38-5.41-21.99C.24,404.51,0,398.31,0,392.08c.01-106.92-.05-213.84.08-320.76.02-15.23,3.62-29.69,12.69-42.34,8.57-11.95,19.97-19.99,33.89-24.64C55.89,1.27,65.29,0,75.01,0c116.74.07,233.49.07,350.23,0,17.64,0,33.34,5.24,46.94,16.46,11.86,9.79,19.73,22.21,23.64,37.11,1.61,6.15,2.3,12.41,2.3,18.77-.02,108.84-.01,217.69-.01,326.53,0,2.99-.04,5.97-.62,8.91-.26.06-.54.17-.53.46.09,1.56-.17,3.07-.65,4.54-.42,1.28-.39,2.66-.79,3.9-.84,2.61-1.52,5.25-2.29,7.88-.43,1.47-.6,3.13-1.93,4.22-.45.36-.37.89-.47,1.38-.23,1.08-.29,2.31-1.1,3.1-.44.44-.75.77-.7,1.36.05.62-.13,1.01-.77,1.27-.5.2-.78.72-1.07,1.21-1.59,2.7-3.58,5.13-5.48,7.62-.75.98-1.9,1.54-2.77,2.3-1.37,1.19-2.19,2.95-3.67,4.29-2.05,1.85-4.04,3.77-6.22,5.47-1.89,1.47-4.07,2.48-6.11,3.69-2.53,1.5-5.04,3.07-7.74,4.2-.99.42-1.81,1.27-2.79,1.38-2.7.31-5.01,1.81-7.65,2.25-1.82.3-3.58,1.2-5.34,1.35-3.86.33-7.71,1.04-11.61.73-.53-.04-1.13-.18-1.6.25-.57.52-1.27.43-1.87.26-.8-.23-1.6-.22-2.4-.21-26.67.19-53.34.07-80.01.2-59.54.3-119.08.09-178.62.14-1.21,0-2.19-.78-3.33-.63-2.62.34-5.23.18-7.84.04-.27-.01-.59.01-.66.25-.4,1.23-1.4.91-2.26.91-12.79,0-25.58,0-38.38,0-15.9,0-31.8,0-47.69,0ZM90.59,412.28c-.36.18-1.38-.16-.56.89,1.44,1.84,3.21,3.33,4.9,4.92,2.13,2,4.36,3.9,6.48,5.9,3.38,3.18,6.65,6.48,10.09,9.59.73.66,1.06,1.63,1.84,2.09,2.47,1.45,4.13,3.78,6.23,5.62,1.45,1.27,2.84,2.7,4.27,3.98,1.75,1.56,3.4,3.25,5.23,4.74,2.14,1.74,4.03,3.79,6.09,5.64,3.34,3.01,6.45,6.23,9.55,9.48,1.33,1.39,2.79,2.77,5.05,2.91,1.37.08,2.69-.1,4.03-.09,65.29.22,130.58-.35,195.87.29,8.49.08,16.98-.05,25.48-.18,12.33-.19,24.68-.39,37.02.18,3.68.17,7.36-.06,11.05-.22,5.46-.23,10.92.04,16.35-1.16,2.92-.64,5.85-1.29,8.69-2.16,3.12-.95,6.11-2.41,9.08-3.8,3.92-1.84,7.43-4.36,10.95-6.88,5.39-3.85,9.66-8.81,13.88-13.78,1.26-1.49,2.24-3.4,3.28-5.16,1.84-3.12,3.45-6.33,4.91-9.65,1.08-2.47,2.09-5.03,2.73-7.54.62-2.45,1.34-4.95,1.65-7.55.43-3.6.9-7.21.92-10.8.11-18.48.08-36.95,0-55.43,0-1.87.19-3.78-.22-5.66.34-.62.2-1.29.2-1.94,0-88.14,0-176.28.01-264.43,0-8.28-1.38-16.29-4.16-24.09-9.59-26.9-35.85-45.44-64.4-45.44-81.92,0-163.83.01-245.75-.06-2.87,0-5.32.55-7.77,2-17.27,10.18-33.47,21.82-47.74,35.95-17.04,16.88-31.26,35.88-42.39,57.16-6.65,12.73-11.85,26.03-15.57,39.91-3.31,12.35-5.25,24.93-6.34,37.66-1.18,13.77-1.04,27.51.51,41.23,1.88,16.67,5.85,32.83,11.92,48.49,9.19,23.7,22.67,44.75,39.22,63.93,5.02,5.82,10.58,11.14,15.69,16.88,5.39,6.07,6.37,12.85,3.05,20.27-3.59,8.01-8.87,14.82-15.05,20.95-7.33,7.27-15.7,13.2-24.37,18.74-1.4.9-2.84,1.76-4.16,2.78-1.64,1.27-1.48,2.38.39,3.29.57.28,1.23.38,1.86.57Z"/>
  <path class="cls-1" d="M63.12,471.59c15.9,0,31.8,0,47.69,0,12.79,0,25.58.01,38.38,0,.85,0,1.86.32,2.26-.91.08-.24.39-.27.66-.25,2.61.14,5.22.31,7.84-.04,1.14-.15,2.12.63,3.33.63,59.54-.05,119.08.16,178.62-.14,26.67-.13,53.34-.02,80.01-.2.8,0,1.6-.01,2.4.21.6.17,1.3.26,1.87-.26.47-.42,1.07-.29,1.6-.25,3.9.31,7.75-.41,11.61-.73,1.76-.15,3.51-1.05,5.34-1.35,2.64-.44,4.95-1.93,7.65-2.25.98-.11,1.8-.97,2.79-1.38,2.7-1.14,5.21-2.7,7.74-4.2,2.04-1.22,4.22-2.22,6.11-3.69,2.19-1.7,4.18-3.62,6.22-5.47,1.49-1.34,2.3-3.1,3.67-4.29.87-.75,2.03-1.31,2.77-2.3,1.9-2.49,3.88-4.92,5.48-7.62.29-.5.57-1.02,1.07-1.21.65-.26.82-.64.77-1.27-.05-.59.26-.92.7-1.36.81-.79.87-2.02,1.1-3.1.1-.49.03-1.02.47-1.38,1.33-1.09,1.5-2.75,1.93-4.22.76-2.62,1.45-5.27,2.29-7.88.4-1.24.37-2.62.79-3.9.48-1.47.74-2.98.65-4.54-.02-.29.27-.4.53-.46-.29,4.32-1.47,8.45-2.58,12.6-1.77,6.65-3.98,13.12-7.5,19.07-8.61,14.55-20.96,24.44-37.05,29.63-6.7,2.17-13.61,3.04-20.64,3.04-89.66,0-179.33.08-268.99-.1-12.04-.02-24.09-.23-36.13-.09-14.53.18-29.06.27-43.59.16-5.97-.05-11.94-.15-17.9-.53Z"/>
  <path class="cls-3" d="M90.59,412.28c-.62-.18-1.28-.29-1.86-.57-1.87-.91-2.03-2.01-.39-3.29,1.31-1.02,2.75-1.88,4.16-2.78,8.67-5.54,17.04-11.47,24.37-18.74,6.18-6.13,11.46-12.94,15.05-20.95,3.32-7.41,2.34-14.2-3.05-20.27-5.1-5.74-10.66-11.06-15.69-16.88-16.55-19.18-30.03-40.22-39.22-63.93-6.07-15.66-10.03-31.82-11.92-48.49-1.55-13.72-1.69-27.46-.51-41.23,1.09-12.73,3.03-25.31,6.34-37.66,3.72-13.88,8.91-27.18,15.57-39.91,11.12-21.28,25.35-40.28,42.39-57.16,14.27-14.14,30.47-25.77,47.74-35.95,2.45-1.45,4.91-2,7.77-2,81.92.07,163.83.06,245.75.06,28.55,0,54.81,18.54,64.4,45.44,2.78,7.8,4.17,15.82,4.16,24.09,0,88.14,0,176.28-.01,264.43,0,.65.14,1.32-.2,1.94-1.04-.09-1.65.61-2.27,1.27-.59.62-1.14,1.29-1.75,1.9-6.03,6.07-12.42,11.74-19.09,17.1-15.74,12.63-32.82,23.1-51.21,31.39-18.73,8.44-38.14,14.87-58.26,19.11-14.64,3.09-29.43,4.97-44.38,5.5-18.06.64-36-.54-53.83-3.52-15.14-2.54-30-6.21-44.55-11.09-6.05-2.03-12.06-3.85-18.53-2.94-4.22.6-8.28,1.88-12.38,2.98-11.47,3.09-22.71,7-34.3,9.69-15.26,3.55-30.7,5.3-46.38,4.53-6.02-.3-11.98-1.15-17.92-2.08ZM168.06,229.79c.89-1.21,1.54-2.16,2.25-3.05,15.16-19.21,30.34-38.41,45.5-57.62,3.61-4.57,6.99-9.29,9.36-14.66,3.17-7.17.21-14.29-7.19-16.76-3.52-1.18-7.23-1.31-10.95-1.3-18.23.04-36.45-.01-54.68-.02-3.65,0-7.28.09-10.84,1.05-4.8,1.29-8.45,5.89-8.48,10.82-.03,5.05,3.5,9.76,8.37,11.05,2.65.7,5.36.99,8.11,1,11.29.02,22.58.05,33.87.06,1.21,0,2.43-.06,3.64-.05.68.01,1.33.25,1.69.86.39.65-.27.99-.59,1.4-3.87,4.93-7.75,9.86-11.63,14.78-12.98,16.48-25.96,32.97-38.95,49.45-2.26,2.86-4.49,5.73-5.62,9.28-2.29,7.2,1.24,14.72,8.14,17.22,2.49.9,5.1,1.34,7.74,1.36,8.15.09,16.3.1,24.45.1,14.23,0,28.45-.04,42.68-.05,2.71,0,5.37-.32,7.82-1.51,5.55-2.7,7.26-8.17,5.95-14.47-.86-4.13-3.5-6.73-7.48-8.01-2.04-.65-4.14-.92-6.28-.92-11.59,0-23.19,0-34.78,0-3.9,0-7.79,0-12.11,0ZM319.86,210.55c.08,0,.16,0,.24,0,0-2.33-.01-4.66,0-6.98.06-8.76-.03-17.51-.28-26.26-.08-2.99-1.29-5.57-3.3-7.79-4.63-5.13-14.88-6.46-20.85.73-.71.85-1.46,2.31-2.19,2.32-.92,0-1.85-1.2-2.78-1.89-6.94-5.14-14.57-7.99-23.34-7.29-6.46.51-12.26,2.87-17.72,6.2-12.09,7.35-19.41,17.87-21.32,32-1.11,8.24-.3,16.35,1.78,24.35,3.79,14.63,12.5,24.82,27,29.67,11.8,3.95,22.91,2.95,32.96-4.94,3.06-2.4,3.4-2.37,6,.61.13.15.27.3.4.45,3.87,4.24,9.34,5.34,15.3,3.07,4.87-1.85,8.07-6.47,8.09-11.9.04-10.78.01-21.56.01-32.34ZM368.58,211.39c0,1.92-.1,3.85.02,5.76,1.09,17.55,12.62,32.58,29.28,38.23,10.11,3.43,20.31,3.4,30.46.43,12.66-3.71,22.04-11.47,27.58-23.54,4.64-10.11,5.6-20.76,3.65-31.62-2.37-13.24-9.18-23.62-20.89-30.5-9.12-5.36-19.1-7.1-29.52-6.23-12.75,1.06-23.24,6.56-31.06,16.78-6.91,9.04-9.6,19.46-9.53,30.68ZM358.98,191.2c0-16.75.01-33.5,0-50.25,0-7.8-4.46-13.58-12.74-14.06-5.75-.33-10.64,2.19-13.01,7.08-1.07,2.22-1.49,4.61-1.49,7.06,0,11.94,0,23.89,0,35.83,0,21.71.01,43.42.05,65.13,0,2.51.61,4.92,1.79,7.14,1.85,3.48,4.57,5.98,8.53,6.67,9.23,1.62,16.89-4.94,16.88-14.36,0-16.75,0-33.5,0-50.25Z"/>
  <path class="cls-1" d="M90.59,412.28c5.95.93,11.9,1.78,17.92,2.08,15.68.77,31.12-.98,46.38-4.53,11.59-2.69,22.83-6.6,34.3-9.69,4.1-1.1,8.16-2.39,12.38-2.98,6.47-.92,12.48.91,18.53,2.94,14.55,4.88,29.4,8.55,44.55,11.09,17.83,2.99,35.78,4.17,53.83,3.52,14.95-.53,29.74-2.41,44.38-5.5,20.12-4.24,39.52-10.67,58.26-19.11,18.39-8.29,35.47-18.76,51.21-31.39,6.67-5.36,13.06-11.03,19.09-17.1.61-.61,1.16-1.27,1.75-1.9.62-.66,1.23-1.36,2.27-1.27.41,1.87.21,3.78.22,5.66.07,18.48.1,36.96,0,55.43-.02,3.6-.49,7.2-.92,10.8-.31,2.6-1.03,5.11-1.65,7.55-.64,2.51-1.64,5.07-2.73,7.54-1.46,3.32-3.07,6.54-4.91,9.65-1.04,1.76-2.02,3.67-3.28,5.16-4.22,4.97-8.48,9.94-13.88,13.78-3.52,2.51-7.03,5.03-10.95,6.88-2.97,1.4-5.95,2.85-9.08,3.8-2.84.87-5.77,1.51-8.69,2.16-5.44,1.2-10.89.93-16.35,1.16-3.69.16-7.37.39-11.05.22-12.34-.57-24.68-.37-37.02-.18-8.49.13-16.99.27-25.48.18-65.29-.64-130.58-.07-195.87-.29-1.34,0-2.67.18-4.03.09-2.26-.14-3.72-1.51-5.05-2.91-3.1-3.25-6.21-6.47-9.55-9.48-2.06-1.85-3.95-3.89-6.09-5.64-1.83-1.49-3.48-3.18-5.23-4.74-1.43-1.28-2.83-2.7-4.27-3.98-2.1-1.85-3.76-4.17-6.23-5.62-.78-.46-1.11-1.43-1.84-2.09-3.44-3.11-6.71-6.4-10.09-9.59-2.12-2-4.35-3.9-6.48-5.9-1.69-1.58-3.46-3.07-4.9-4.92-.82-1.05.2-.71.56-.89Z"/>
  <path class="cls-2" d="M168.06,229.79c4.32,0,8.21,0,12.11,0,11.59,0,23.19,0,34.78,0,2.14,0,4.24.27,6.28.92,3.98,1.27,6.62,3.88,7.48,8.01,1.31,6.3-.4,11.77-5.95,14.47-2.46,1.2-5.11,1.51-7.82,1.51-14.23.01-28.45.05-42.68.05-8.15,0-16.3,0-24.45-.1-2.63-.03-5.24-.46-7.74-1.36-6.9-2.5-10.42-10.03-8.14-17.22,1.13-3.56,3.36-6.42,5.62-9.28,12.98-16.48,25.97-32.97,38.95-49.45,3.88-4.93,7.76-9.85,11.63-14.78.32-.41.98-.74.59-1.4-.36-.6-1.01-.85-1.69-.86-1.21-.02-2.43.05-3.64.05-11.29-.02-22.58-.05-33.87-.06-2.75,0-5.46-.3-8.11-1-4.88-1.29-8.41-6-8.37-11.05.03-4.92,3.68-9.53,8.48-10.82,3.56-.96,7.2-1.05,10.84-1.05,18.23,0,36.45.05,54.68.02,3.72,0,7.43.13,10.95,1.3,7.4,2.47,10.36,9.6,7.19,16.76-2.38,5.37-5.76,10.09-9.36,14.66-15.16,19.21-30.33,38.41-45.5,57.62-.71.9-1.36,1.84-2.25,3.05Z"/>
  <path class="cls-2" d="M319.86,210.55c0,10.78.03,21.56-.01,32.34-.02,5.43-3.22,10.05-8.09,11.9-5.96,2.27-11.43,1.17-15.3-3.07-.14-.15-.27-.3-.4-.45-2.6-2.98-2.94-3.02-6-.61-10.05,7.89-21.16,8.89-32.96,4.94-14.5-4.85-23.21-15.04-27-29.67-2.07-8.01-2.89-16.11-1.78-24.35,1.91-14.14,9.23-24.65,21.32-32,5.47-3.32,11.26-5.68,17.72-6.2,8.77-.7,16.41,2.16,23.34,7.29.93.69,1.86,1.89,2.78,1.89.74,0,1.49-1.47,2.19-2.32,5.97-7.18,16.22-5.86,20.85-.73,2.01,2.22,3.21,4.8,3.3,7.79.25,8.75.34,17.51.28,26.26-.02,2.33,0,4.66,0,6.98-.08,0-.16,0-.24,0ZM292.74,211.43c0-4.61-.71-8.2-2.15-11.65-5.86-14.1-23.19-14.27-30.56-4.48-5.72,7.59-6.5,20.23-1.59,28.43,6.29,10.5,20.52,12,28.71,2.94,4.11-4.54,5.43-10.15,5.59-15.24Z"/>
  <path class="cls-2" d="M368.58,211.39c-.07-11.22,2.62-21.65,9.53-30.68,7.82-10.22,18.31-15.72,31.06-16.78,10.42-.87,20.4.87,29.52,6.23,11.71,6.88,18.52,17.26,20.89,30.5,1.94,10.86.98,21.51-3.65,31.62-5.53,12.07-14.92,19.83-27.58,23.54-10.15,2.98-20.35,3-30.46-.43-16.66-5.65-28.2-20.68-29.28-38.23-.12-1.91-.02-3.84-.02-5.76ZM414.37,188.66c-6,.01-11.07,2.33-14.71,7.5-5.42,7.71-5.55,20.11-.32,28.2,7.5,11.61,24.61,10.82,30.85-1.53,3.94-7.79,3.94-15.85.33-23.74-3.06-6.7-8.39-10.33-16.15-10.42Z"/>
  <path class="cls-2" d="M358.98,191.2c0,16.75,0,33.5,0,50.25,0,9.42-7.65,15.99-16.88,14.36-3.96-.7-6.67-3.19-8.53-6.67-1.18-2.23-1.79-4.63-1.79-7.14-.03-21.71-.04-43.42-.05-65.13,0-11.94,0-23.89,0-35.83,0-2.46.42-4.85,1.49-7.06,2.37-4.9,7.25-7.42,13.01-7.08,8.28.48,12.73,6.26,12.74,14.06.02,16.75,0,33.5,0,50.25Z"/>
  <path class="cls-3" d="M292.74,211.43c-.16,5.1-1.49,10.7-5.59,15.24-8.19,9.06-22.43,7.56-28.71-2.94-4.91-8.2-4.13-20.83,1.59-28.43,7.38-9.79,24.7-9.62,30.56,4.48,1.44,3.45,2.16,7.04,2.15,11.65Z"/>
  <path class="cls-3" d="M414.37,188.66c7.76.1,13.08,3.72,16.15,10.42,3.61,7.89,3.61,15.95-.33,23.74-6.24,12.35-23.34,13.15-30.85,1.53-5.23-8.09-5.1-20.49.32-28.2,3.63-5.17,8.71-7.49,14.71-7.5Z"/>
</svg>