<?xml version="1.0" encoding="UTF-8"?>
<svg id="Layer_2" data-name="Layer 2" xmlns="http://www.w3.org/2000/svg" xmlns:xlink="http://www.w3.org/1999/xlink" viewBox="0 0 886 886">
  <defs>
    <style>
      .cls-1 {
        fill: none;
      }

      .cls-2 {
        fill: #ee4039;
      }

      .cls-3 {
        fill: #fcfafa;
      }

      .cls-4 {
        clip-path: url(#clippath);
      }

      .cls-5 {
        fill: #169446;
      }
    </style>
    <clipPath id="clippath">
      <rect class="cls-1" width="886" height="886"/>
    </clipPath>
  </defs>
  <g id="Layer_1-2" data-name="Layer 1">
    <g class="cls-4">
      <g>
        <path class="cls-5" d="M1107-221v1328H-221V-221h1328ZM88.22,360.13c2.51,3.11,22.14,6.02,27.3,6.41,25.95,1.93,68.03.87,76.48-29.89,7.27-26.46-7.08-44.65-30.26-55.31-19.09-8.78-71.76-13.6-61.17-45.11,3.83-11.38,25.39-14.59,35.84-15.12,10.43-.53,38.7,4.9,44.79,2.8,5.3-1.82,4.94-11.57.09-14.59-2.85-1.78-20.94-4.31-25.35-4.62-32.85-2.33-79.6,1.95-74.21,45.73,1.55,12.62,16.36,24.55,26.95,30,21.6,11.12,77,15.35,66.5,51.39-7.66,26.28-61.98,18.07-82.1,13.72-6.61,1.67-9.16,9.27-4.87,14.59ZM289.81,205.12c-52.96,5.46-78.67,48.37-70.02,99.12,14.81,86.93,156.92,84.88,164.74-8.9,4.99-59.83-36.06-96.26-94.71-90.22ZM585.38,230.16l52.68,132.44c6.56,9.75,20.2,1.28,15.55-9.56-20.54-42.38-33.93-90.88-54.47-132.88-7.09-14.5-17.89-17.72-28.35-3.86l-56.36,138.59c-3.66,11.49,11.51,16.83,16.62,6.03,19.33-39.87,31.49-88.04,51.31-127.06.72-1.41.86-3.56,3.02-3.71ZM428.01,350.07v-134.15c0-4.46-14.88-8.86-16.49,0l.25,146.64c1,2.99,5.19,3.7,7.97,4.02,19.46,2.25,43.01-1.69,62.95-.06,11.06-2.13,5.25-16.46-1.47-16.46h-53.21ZM739.78,299.12c38.81,3.6,68.64-7.41,64.52-51.79-1.9-20.44-16.14-32.43-35.41-36.53l-89.02.66c-6.55,4.3-5.89,10.29,1.03,13.89,25.53,3.76,64.86-5.07,88.45,2.98,26.4,9.01,22.91,50.95-4.79,54.33-18.66,2.28-43.18-2.78-61.4.05-4.17.65-9.93,4.85-9.51,9.42,1.04,11.44,18.13,4.46,24.5,8.4l56.15,63.75c6.96,5.22,15.48,1.27,15.02-7.37l-49.52-57.78ZM779.85,415l-656.94-.56c-7.39,1.04-21.78,6.42-25.67,12.54-1.36,2.14-.63,5.76-3.6,7.68l.16,227.63c4.07,1.42,2.21,4.69,3.43,6.58.34.53,8.44,8.64,8.98,8.98,1.51.97,5.34.43,7.68,3.6l671.29-.16c1.42-4.07,4.69-2.21,6.58-3.43.53-.34,8.64-8.44,8.98-8.98.97-1.51.43-5.34,3.6-7.68v-226.53c-3.09-3.78-5.05-10.81-9.58-13.66-1.13-.71-3.28-.29-5.04-.99-.52-.2-.52-2.23-1.54-2.46-2.21-.5-4.72.43-6.93-.05-1.09-.24-1.02-2.31-1.42-2.5Z"/>
        <path class="cls-2" d="M779.85,415c.4.19.33,2.26,1.42,2.5,2.2.48,4.72-.45,6.93.05,1.02.23,1.02,2.26,1.54,2.46,1.76.69,3.91.28,5.04.99,4.53,2.85,6.48,9.87,9.58,13.66v226.53c-3.16,2.34-2.62,6.16-3.6,7.68-.34.53-8.44,8.64-8.98,8.98-1.9,1.22-5.17-.64-6.58,3.43l-671.29.16c-2.34-3.16-6.16-2.62-7.68-3.6-.53-.34-8.64-8.44-8.98-8.98-1.22-1.9.64-5.17-3.43-6.58l-.16-227.63c2.97-1.92,2.24-5.54,3.6-7.68,3.88-6.12,18.27-11.5,25.67-12.54l656.94.56ZM726.92,566.78c-28.04-33.58-56.37-66.97-85.32-99.79-20.23-14.06-42.76,4.62-33.57,27.57,3.8,8.12,43.71,48.06,43.07,52.34l-44.33,54.63c-9.38,23.42,16.16,40.96,35.48,26.49l39.82-47.09,42.79,48.62c13.52,10.02,34.11-1.77,34.13-17.92,0-12.24-23.71-34.83-32.07-44.85ZM338.95,521.81c6.59-7.38,23.11-22.73,24.51-31.69,3.39-21.85-20.61-34.5-37.4-20.93l-74.26,81.67-17.91-17.91c-15.14-16.7-29.32-34.77-44.92-51-10.89-11.33-19.38-23.49-37.34-16.32-8.66,3.46-13.84,15.4-12.56,24.2,1.03,7.09,10.39,16.45,15.39,22.14,22.16,25.21,47.74,53.3,71.18,77.21,15.47,15.78,24.21,26.12,44.48,7.68,21.58-19.64,48.71-52.49,68.85-75.04ZM565.03,627.99c8.34-6.94,9.73-12.28,8.02-23.51-17.39-37.35-28.05-81.09-45.37-117.99-10.54-22.44-27.16-25.59-50.81-22.37-13.33,1.82-21.15,11.7-26.4,23.06-16.69,36.11-27.07,78.49-43.9,114.98-7.99,26.28,22.07,42.73,39.45,21.47l41.61-111.26,3.33-1.9,40.73,111.42c8.76,12.14,21.46,16.01,33.35,6.12ZM728.89,464.34c-9.07,1.68-31,29.1-32.29,38.26-2.55,18.21,19.48,31.41,34.94,21.34,4.11-2.67,23.43-26.7,24.41-31.05,4.27-18.95-7.82-32.12-27.06-28.55ZM159.35,540.75c-9.2,1.34-18.43,9.62-20.28,18.75-1.67,8.23-1.46,43.14-.38,52.16,3.25,26.96,40.47,28.57,45.86,5.31,2.04-8.82,1.78-46.4.64-56.31-1.37-12.01-13.78-21.68-25.84-19.91ZM336.19,540.76c-11.92,2.05-18.2,13.23-19.14,24.34s-1.25,47.64,2.73,55.83c9.3,19.12,39.44,14.54,43.44-5.16,1.75-8.59,1.51-45.7.38-55.15-1.52-12.66-14.93-22-27.41-19.86Z"/>
        <path class="cls-3" d="M289.81,205.12c58.65-6.05,99.7,30.38,94.71,90.22-7.82,93.78-149.92,95.84-164.74,8.9-8.65-50.75,17.06-93.66,70.02-99.12ZM349.54,238.18c-30.56-30.04-96.03-20.99-109.64,23.45-17.77,58.02,26.23,102.63,84.65,86.15,45.68-12.89,56.21-78.9,24.99-109.6Z"/>
        <path class="cls-3" d="M88.22,360.13c-4.29-5.31-1.74-12.91,4.87-14.59,20.12,4.35,74.44,12.57,82.1-13.72,10.5-36.04-44.9-40.27-66.5-51.39-10.59-5.45-25.4-17.38-26.95-30-5.39-43.79,41.36-48.06,74.21-45.73,4.42.31,22.5,2.85,25.35,4.62,4.85,3.02,5.21,12.77-.09,14.59-6.08,2.09-34.36-3.34-44.79-2.8-10.45.53-32.01,3.74-35.84,15.12-10.6,31.51,42.08,36.33,61.17,45.11,23.17,10.66,37.53,28.85,30.26,55.31-8.45,30.76-50.53,31.81-76.48,29.89-5.15-.38-24.79-3.3-27.3-6.41Z"/>
        <path class="cls-3" d="M739.78,299.12l49.52,57.78c.47,8.65-8.05,12.59-15.02,7.37l-56.15-63.75c-6.37-3.94-23.46,3.04-24.5-8.4-.41-4.57,5.35-8.77,9.51-9.42,18.22-2.83,42.74,2.23,61.4-.05,27.71-3.38,31.19-45.31,4.79-54.33-23.59-8.05-62.92.78-88.45-2.98-6.92-3.59-7.58-9.58-1.03-13.89l89.02-.66c19.27,4.1,33.52,16.09,35.41,36.53,4.12,44.38-25.71,55.39-64.52,51.79Z"/>
        <path class="cls-3" d="M585.38,230.16c-2.17.15-2.3,2.29-3.02,3.71-19.82,39.01-31.98,87.19-51.31,127.06-5.11,10.8-20.28,5.46-16.62-6.03l56.36-138.59c10.46-13.86,21.26-10.64,28.35,3.86,20.54,42,33.93,90.5,54.47,132.88,4.66,10.84-8.99,19.31-15.55,9.56l-52.68-132.44Z"/>
        <path class="cls-3" d="M428.01,350.07h53.21c6.71,0,12.53,14.33,1.47,16.46-19.94-1.63-43.48,2.3-62.95.06-2.78-.32-6.97-1.03-7.97-4.02l-.25-146.64c1.61-8.86,16.49-4.46,16.49,0v134.15Z"/>
        <path class="cls-3" d="M565.03,627.99c-11.89,9.89-24.6,6.02-33.35-6.12l-40.73-111.42-3.33,1.9-41.61,111.26c-17.39,21.26-47.44,4.81-39.45-21.47,16.83-36.49,27.21-78.87,43.9-114.98,5.25-11.36,13.07-21.24,26.4-23.06,23.66-3.22,40.28-.08,50.81,22.37,17.33,36.91,27.98,80.64,45.37,117.99,1.72,11.23.33,16.57-8.02,23.51Z"/>
        <path class="cls-3" d="M338.95,521.81c-20.14,22.55-47.27,55.4-68.85,75.04-20.27,18.45-29.01,8.11-44.48-7.68-23.44-23.91-49.02-52-71.18-77.21-5.01-5.69-14.37-15.05-15.39-22.14-1.27-8.79,3.9-20.74,12.56-24.2,17.96-7.17,26.45,4.99,37.34,16.32,15.6,16.23,29.79,34.31,44.92,51l17.91,17.91,74.26-81.67c16.79-13.58,40.8-.93,37.4,20.93-1.39,8.96-17.92,24.31-24.51,31.69Z"/>
        <path class="cls-3" d="M726.92,566.78c8.36,10.01,32.08,32.61,32.07,44.85-.01,16.15-20.61,27.94-34.13,17.92l-42.79-48.62-39.82,47.09c-19.32,14.47-44.86-3.07-35.48-26.49l44.33-54.63c.64-4.28-39.27-44.22-43.07-52.34-9.19-22.95,13.34-41.63,33.57-27.57,28.95,32.82,57.29,66.2,85.32,99.79Z"/>
        <path class="cls-3" d="M159.35,540.75c12.06-1.76,24.47,7.9,25.84,19.91,1.13,9.91,1.4,47.49-.64,56.31-5.39,23.26-42.61,21.65-45.86-5.31-1.09-9.02-1.29-43.94.38-52.16,1.86-9.14,11.08-17.41,20.28-18.75Z"/>
        <path class="cls-3" d="M336.19,540.76c12.47-2.14,25.88,7.2,27.41,19.86,1.14,9.45,1.37,46.56-.38,55.15-4.01,19.7-34.14,24.28-43.44,5.16-3.98-8.19-3.63-45.22-2.73-55.83s7.23-22.29,19.14-24.34Z"/>
        <path class="cls-3" d="M728.89,464.34c19.24-3.57,31.33,9.6,27.06,28.55-.98,4.35-20.3,28.38-24.41,31.05-15.47,10.06-37.49-3.14-34.94-21.34,1.28-9.16,23.22-36.58,32.29-38.26Z"/>
        <path class="cls-5" d="M349.54,238.18c31.22,30.69,20.69,96.71-24.99,109.6-58.42,16.48-102.42-28.13-84.65-86.15,13.61-44.43,79.08-53.49,109.64-23.45Z"/>
      </g>
    </g>
  </g>
</svg>